<svg xmlns="http://www.w3.org/2000/svg" viewBox="0 0 4680 3120"><defs><style>.cls-1,.cls-15{fill:#fff;}.cls-1{opacity:0;}.cls-2{fill:#e9d9ca;}.cls-3{fill:#4e7b69;}.cls-4{fill:#565656;}.cls-5{fill:#6ca48d;}.cls-6{fill:#375d4e;}.cls-7{fill:#c1afa3;}.cls-8{fill:#323b5d;}.cls-9{fill:#2c5abb;}.cls-10{fill:#24478f;}.cls-11{fill:#69b7df;}.cls-12{fill:#97cfe6;}.cls-13{fill:#e3f0fe;}.cls-14{fill:#b4daff;}.cls-16{fill:#0b6796;}.cls-17{fill:#f69b63;}.cls-18{fill:#ffd972;}.cls-19{fill:#c31f4b;}.cls-20{fill:#0c78ae;}.cls-21{fill:#0097c5;}.cls-22{fill:#eaa69b;}.cls-23{fill:#263e6a;}.cls-24{fill:#355389;}.cls-25{fill:#a91f43;}.cls-26{fill:#a21a3e;}.cls-27{fill:#a9a9a9;}.cls-28{fill:#848484;}.cls-29{fill:#202020;}.cls-30{fill:#111;}.cls-31{fill:#d76b5e;}.cls-32{fill:#de7360;}.cls-33{fill:#333;}.cls-34{fill:#3b3b3b;}.cls-35{fill:#303030;}.cls-36{fill:#393939;}.cls-37{fill:#151b37;}</style></defs><title>06</title><g id="_06" data-name="06"><rect id="_06-2" data-name="06" class="cls-1" width="4680" height="3120"/><path class="cls-2" d="M3493.76,966.63c-349.16-56.08-592.68-519.36-942.69-579.53-424.44-73-858.42,20.69-1225,248.21a1898.18,1898.18,0,0,0-272.76,205.31C759.06,1107,520,1532.34,626.43,1940.54a651.13,651.13,0,0,0,169.14,295.91c520,521.31,1333.46-54.4,1948.08,140.37,199.53,63.23,384.69,165.9,593.66,202,389.62,67.27,799.2-152.9,912.48-546.83C4401.84,1503.18,3964.61,1042.27,3493.76,966.63Z"/><path class="cls-3" d="M3850.45,1719.11l-1.2,1.94A12,12,0,0,0,3850.45,1719.11Z"/><path class="cls-3" d="M4196.85,1347.2a163.48,163.48,0,0,0-22,9.09c8.33-9.3,16.37-19.19,21.48-26.12,12.86-18.05,18.45-36.42,11.72-41.4s-23.52,5.77-36.74,24.3c-11.3,15.33-28.22,49.54-29.29,63.11-4.55,3.8-7.23,7.18-6.63,9.5a2.63,2.63,0,0,0,.51.75q-21.21,17.88-41.83,36.73c6.14-13.74,4.86-59.84,2.62-81.74-3.06-24.94-13.41-43.07-24.19-39.84s-17.44,26.73-13.88,51.83c3.05,24.6,20.74,73.93,31.23,73.59-1.69,1.56-3.35,3.19-5,4.76a8.58,8.58,0,0,0-3.36,3.18q-39.3,37-76.05,77.48c7.05-18.36,10.94-64.11,11.58-87.09.16-28.44-8-50.58-19.58-48.82s-22.06,27.19-21.87,56.1c-.39,28.15,11.68,85.78,22.85,87.56-.59.66-1.2,1.31-1.79,2-2.94,2.41-5.08,4.7-6,6.75q-33.81,38.53-65.14,80c6.56-19.57,6.89-72,5.7-97.82-2.17-31-12.71-54.43-25.23-51.39s-21.77,31.78-19.17,63.36c1.94,31.53,20.9,95.55,33.16,93.38q-36.69,49.36-69.52,102.68a12,12,0,0,1-1.2,1.94l1.2-1.94c8.45-16.5,7.38-81.56,5.43-112.27-3-34-14.69-59.64-28-56.18s-22.75,35.27-19.28,70c2.72,35.21,25.37,106.92,38.43,102.13a5,5,0,0,0,2.1-1.62q-30.22,49.38-56.87,102c-.06.1-.11.22-.16.32-.74-27.75-12.53-78.81-19.76-105-10.55-34.69-28.66-58.06-42.22-50.59s-16.71,43.25-5.32,78.4c9.53,31.85,42.16,89.32,58.26,95.66q-24.24,49.82-44.94,102.27c-1-30-14.69-87.07-22.75-116.15-11.65-37.94-31-63.77-45.26-55.87s-17.31,47-4.77,85.73c10.81,36.32,48.79,102.7,65.25,105.6q-16.14,42.72-29.68,87.06c-9.46-29.87-40.05-82.42-56.85-108.46-22.94-33.51-50.58-51-63.16-36.71s-4.12,54.79,20.14,88.12c20.28,29.25,71.77,75.44,93.21,79.15-3.14,10.85-6.22,21.75-9.12,32.74q-12.21,46.25-21.42,94.07c-8.51-35.34-32.51-93-45.88-123.2-19.9-41.49-46-67.6-60.54-55.71s-11,57.78,10.25,100c18,38.35,69.81,103.58,90.65,108.67-6.14,35.49-11.08,71.5-14.55,108.05-12.5-37.31-42.75-96.42-59.28-127.41-24.61-42.83-54.28-68.64-68.66-54.57s-6.64,63.19,19.58,106.81c22.36,39.71,83.13,105.12,105.65,108.77-1.15,16.18-2.1,32.43-2.68,48.8q8.38,1.22,16.81,2.36c.19-8.48.6-16.89.95-25.32a10.09,10.09,0,0,0,.81,3.11c10.34,18.59,92.69-29,126.86-53.58,33.89-25.44,54.57-57.71,45.86-74.76S3785.13,2258,3750,2282c-31.13,20-87.35,80-93.72,108.06a1424.18,1424.18,0,0,1,41.31-280c11.59-46.21,25.41-91.27,41.11-135.16,19.83,10,77.56,10,105.7,6.23,34.09-4.86,60.65-20.56,59.8-36.11s-28.9-26.38-63.13-23.09c-24.22,1.94-69.35,14.74-93.34,28.48q23.79-62.86,52.71-122.22c13.36-27.32,27.59-54,42.46-80,12.82,10.36,69.22,11.17,95.75,8.48,30-3.4,53.76-16.06,53.55-29.45s-24.42-23.22-54.58-20.81c-21.91,1.34-63.7,12.47-84.69,24.29q28.15-47.74,59.56-92.51c7.6,11,64.33,13.39,90.31,11.59,28-2.35,50.35-13.29,50.53-25.63s-22.05-22-50.14-20.43c-21,.75-62.12,10.6-81.28,21.31q33.72-47,70.7-90.42c11.42,7.09,61.21,1.3,84.13-3.45,25.67-5.83,45.23-18.6,44.11-29.86s-22.85-17-48.89-11.55c-15.29,2.86-41.34,12.62-60,22.64q33.83-38,70-73c7.08,10,51.12,20.41,72.15,22.91,23.45,2.48,43.59-3.13,45.52-13.3s-15.11-21.46-38.55-24.52c-16.81-2.48-50-1.11-67.92,4q22-20.85,44.89-40.49c10.41,3.73,48.13-4.46,65.5-9.91,19.8-6.54,34.39-18.07,32.74-26.59S4217,1340.68,4196.85,1347.2Z"/><path class="cls-3" d="M3883.75,1800.81c-31.53,9.29-99,48.53-95.19,64.32,3.76,14.89,76.1-1.6,107.06-11.92,31-11,53.37-29.76,50.34-43.8S3915.23,1790.73,3883.75,1800.81Z"/><path class="cls-4" d="M3796.72,2034.36c-34.57,14.18-106,67.25-99.68,85.54,6.13,17.21,85.75-10.14,119.48-25.79,33.63-16.4,56.66-40.8,51.55-56.68S3831.09,2019.29,3796.72,2034.36Z"/><path class="cls-4" d="M3768.12,2156c-35.32,18.31-106,82.23-97.48,101.36,8.13,18,89.7-19.13,123.9-39.08,34-20.78,56.15-49,49.32-65.57S3803.13,2136.57,3768.12,2156Z"/><path class="cls-5" d="M3906.53,1933.23c-145.26,188.37-137.8,437.64-137.8,437.64s243-56.14,388.25-244.5,137.79-437.64,137.79-437.64S4051.8,1744.86,3906.53,1933.23Z"/><path class="cls-4" d="M4119.05,1907.82c-40.28,50.41-79.63,101.53-119.46,152.28-38.93,51.44-78.41,102.47-116.9,154.25l-57.55,77.82c-18.79,26.24-37.95,52.2-56.41,78.7,20.94-24.58,41.18-49.71,61.79-74.55l60.63-75.45c40.3-50.38,79.61-101.53,119.47-152.27,39-51.42,78.41-102.47,116.92-154.23l57.56-77.82c18.78-26.25,37.94-52.21,56.38-78.72-20.95,24.58-41.18,49.71-61.8,74.55Z"/><path class="cls-4" d="M4183.76,1835.31l-.81-1.62-1.83-.26Z"/><path class="cls-4" d="M4183.76,1835.31l-2.64-1.88,1.83.26c-5.45-11.07-11.1-22-17.05-32.87-6.32-11.31-12.66-22.61-19.8-33.52,4.38,12.28,9.57,24.16,14.78,36s10.89,23.5,16.71,35l.85,1.67,1.8.22c22.3,2.67,44.67,4.85,67.26,5.24-21.34-5.23-42.91-8.76-64.55-11.81Z"/><path class="cls-4" d="M3873.92,2237.09c-.26-.54-.53-1.08-.8-1.62l-1.83-.26Z"/><path class="cls-4" d="M3873.92,2237.09l-2.63-1.88,1.83.26q-8.17-16.6-17-32.87c-6.32-11.31-12.66-22.62-19.81-33.52,4.39,12.27,9.58,24.15,14.78,36s10.89,23.49,16.72,35.05l.84,1.67,1.8.21c22.31,2.67,44.67,4.85,67.27,5.25-21.35-5.23-42.92-8.77-64.55-11.81C3873.39,2236,3873.66,2236.55,3873.92,2237.09Z"/><path class="cls-4" d="M4110.54,1931.11c.37.75.75,1.5,1.11,2.25l-3.63-2.6,2.52.35c-7.52-15.26-15.31-30.38-23.51-45.31-8.71-15.59-17.45-31.18-27.3-46.22,6,16.93,13.19,33.31,20.38,49.67s15,32.39,23,48.33l1.15,2.29,2.49.3c15.37,1.86,30.75,3.68,46.23,4.75,15.44,1.28,30.92,2.31,46.52,2.48-15.13-3.8-30.36-6.75-45.62-9.44C4139.52,1935.21,4125,1933.13,4110.54,1931.11Z"/><path class="cls-4" d="M4111.65,1933.36c-.36-.75-.74-1.5-1.11-2.25l-2.52-.35Z"/><path class="cls-4" d="M3942.81,2152.3c-.36-.75-.74-1.5-1.11-2.24l-2.52-.36Z"/><path class="cls-4" d="M3941.7,2150.06c.37.74.75,1.49,1.11,2.24l-3.63-2.6,2.52.36q-11.26-22.91-23.51-45.31c-8.71-15.6-17.45-31.19-27.3-46.22,6,16.92,13.2,33.3,20.38,49.66s15,32.4,23.05,48.33l1.16,2.29,2.48.3c15.37,1.86,30.75,3.68,46.23,4.75,15.44,1.28,30.93,2.31,46.52,2.49-15.12-3.81-30.36-6.76-45.62-9.45C3970.69,2154.15,3956.2,2152.07,3941.7,2150.06Z"/><path class="cls-4" d="M4026.52,2048.3c-.47-1-.95-1.9-1.42-2.86l-3.22-.44Z"/><path class="cls-4" d="M4026.52,2048.3l-4.64-3.3,3.22.44q-14.35-29.19-29.94-57.77-8.19-15-16.82-29.74c-6-9.74-11.65-19.62-18-29.16,3.76,10.83,8.22,21.32,12.37,32q6.57,15.81,13.57,31.37,14,31.14,29.42,61.6l1.47,2.92,3.17.38c39.19,4.77,78.5,8.6,118.22,9.22-37.51-9.26-75.42-15.48-113.45-20.77C4025.57,2046.4,4026.05,2047.35,4026.52,2048.3Z"/><path class="cls-6" d="M757.24,1846.7l1.65,2.11A13.88,13.88,0,0,0,757.24,1846.7Z"/><path class="cls-6" d="M1432,2335.72c24.73-3.92,5.34-114.2-8-161.92-14.45-47.74-41.78-83.65-64.15-80.9s-32.94,43.65-20.66,92.17c9.5,42.48,53.2,128.9,81.66,147.27a1676.48,1676.48,0,0,1-293-158.75c-46.42-31.48-90.67-65-132.86-100,19.11-17.88,42.38-81.73,49.57-114.37,8.38-39.66,1.75-75.37-15.79-80.72s-40.84,21.31-51,60.49c-7.63,27.57-11.7,82.64-6.19,114.72Q911.55,2002,857.6,1946q-37.23-38.7-71.36-79.27c16.63-10,40.3-72,48-102.45,8.35-34.56,4-65.94-10.95-71.12s-35.53,17.63-45,52c-7.38,24.76-11.93,75.47-7.34,103.46q-41.44-50.41-78.26-103.22c15.28-4,40.79-65.73,49.29-95.19,8.69-31.86,5.63-61-7.94-66.23s-33.18,15.53-42.84,47.2c-7.66,23.57-13.36,73-9.26,98.49q-38.31-56.25-71.43-114.7c12.44-9.76,26.15-67.16,30.14-94.42,3.93-30.74-2.29-57.53-15.21-60.84s-28,18.42-32.51,49.41c-3,18.06-2.73,50.81.83,75.44q-28.38-52.75-52.47-106.87c13.87-3.8,43.22-48.28,54.47-70.53,12.21-24.93,14.14-49.46,3.67-55.7s-29.83,8-42.68,32.72c-9.53,17.59-21.39,54.8-23,76.75-9.44-21.86-18.27-43.88-26.66-66,8.34-10,14.5-55,15.49-76.44.76-24.53-6.1-45.32-16.18-46.93s-19.68,17-20.62,41.91a191.28,191.28,0,0,0,1.18,28c-6.92-13-14.62-25.86-20.22-34.31-14.77-21.5-32.83-35.11-41-29.67s-3.12,28.33,12,50.44c12.39,18.68,43.39,51.21,58,57.88,2.36,6.56,5,10.88,7.82,11.16a3.06,3.06,0,0,0,1-.26q11.21,30.67,23.72,61.09c-12.7-12.34-64.2-29.54-89.33-35.91-28.82-6.69-53-2.56-53.82,10.66s22.52,30.09,51.7,36.29c28.45,6.56,90.14,6.91,94-4.83,1,2.5,2.17,5,3.23,7.49a10.27,10.27,0,0,0,2.16,5q25,58.38,55,115.39c-17.46-15.22-66.49-38-91.63-48-31.39-11.66-59.16-11.63-61.9,1.94s21.16,35.37,53.2,46.84c31,11.79,99.58,21.72,106.06,10.09.49.92,1,1.85,1.46,2.77,1.47,4.23,3.14,7.51,5,9.32q28.95,53,62.18,104.35c-19-15.16-76.81-36.68-105.88-45.8-35.17-10.13-65.32-7.92-67,7.14s26.36,36.91,62.33,46.79c35.66,10.59,114.1,15.47,116.65,1q39.78,60.53,85.49,118.35a13.88,13.88,0,0,1,1.65,2.11l-1.65-2.11c-14.84-16-87.22-41.09-122-51.34-38.84-10.43-71.88-7.84-73.42,8.27s29.81,39.4,69.68,49.61c40,11.21,128.47,15.11,128.45-1.27a5.81,5.81,0,0,0-.94-3q42.4,53.37,89.77,104.07l.29.3c-31-10.38-92.2-18-124.05-20.53-42.63-2.34-75.79,8.25-73,26.26s41.08,35.94,84.56,37.54c39.06,2.31,115.79-10.56,129.3-25.8q45.3,46.92,95,91c-33.53-11-102.21-18.92-137.63-21.74-46.66-2.45-83,8.49-80.06,27.49s45,38.14,92.88,39.89c44.52,2.71,133.28-12.49,143.12-29.51q40.73,35.09,84.3,68c-36.85-1.59-107.32,11-142.89,19.08-46.33,11.84-76.85,35.33-66.11,55s58.93,26.68,105.58,13.31c40.53-10.61,112.4-48.9,125.17-71.12q16.1,11.81,32.51,23.31,46.23,32.17,95.38,61.67c-42.5-4.86-116-1.61-154.76,1-53.92,5.25-93.31,23.53-86,44.46s59.46,35.47,114.78,29.06c49.67-4.42,142.73-35.37,156.78-56.36,36.75,21.11,74.58,41.12,113.6,59.72-46.3-1.25-123.89,8.34-164.83,14.1-57.3,9.92-97.82,32.31-88.07,53.9s67.2,32.86,126,21.47c52.94-8.69,149.82-49.48,162.94-72.91,17.44,7.8,35,15.42,52.89,22.67q4.72-8.79,9.4-17.64c-9.3-3.64-18.43-7.48-27.62-11.27A11.78,11.78,0,0,0,1432,2335.72Z"/><path class="cls-6" d="M895.66,1777.54c-16.73-2.29-33.07,26.44-34.63,65.32-2.47,38.62,13.68,129.13,32.69,131.24,18,1.86,29-84.8,30-123.21C924.15,1812.22,912.4,1779.86,895.66,1777.54Z"/><path class="cls-6" d="M1116.36,1955.75c-19.56-.73-35,33.57-32.2,77.66,1.71,44,31.55,144.42,54.34,144.77,21.51.17,23.41-98.93,19.72-142.54C1153.67,1991.83,1136,1956.51,1116.36,1955.75Z"/><path class="cls-6" d="M1234,2029.05c-21,.91-34.25,38.54-26.94,85.09,6,46.45,48.14,150.41,72.73,148.72,23.17-1.73,15.06-106.92,6.81-152.79C1277.38,2064,1255.07,2028.17,1234,2029.05Z"/><path class="cls-3" d="M958,1370.68s-107.19,291-10.27,570.38,361.24,441.53,361.24,441.53,107.19-291,10.28-570.38S958,1370.68,958,1370.68Z"/><path class="cls-5" d="M1236.34,2153.07c-24.94-76.25-51.35-152-76.95-228-26.92-75.56-53.14-151.36-80.73-226.69L1037,1585.47c-14.5-37.41-28.44-75-43.44-112.28,11.29,38.54,23.63,76.71,35.41,115.07l37.15,114.47c25,76.23,51.32,152,77,228,27,75.55,53.13,151.37,80.76,226.68l41.7,112.89c14.49,37.42,28.43,75,43.42,112.29-11.3-38.53-23.64-76.7-35.44-115.06Z"/><path class="cls-5" d="M1032.52,1585.75c.74.1,1.49.18,2.23.27l-3.75,1.46,1.52-1.73c-15.23-1.87-30.5-3.46-45.81-4.66-16.07-1.13-32.14-2.25-48.35-2.25,15.75,3.81,31.64,6.51,47.53,9.18s31.85,4.68,47.85,6.5l2.3.26,1.45-1.73c18-21.37,35.49-43.15,51.3-66.38C1068.8,1545.31,1050.42,1565.33,1032.52,1585.75Z"/><path class="cls-5" d="M1034.75,1586c-.74-.09-1.49-.17-2.23-.27l-1.52,1.73Z"/><path class="cls-5" d="M1239.23,2181.76l2.23.27-3.75,1.46c.51-.57,1-1.15,1.52-1.73-15.23-1.87-30.49-3.47-45.8-4.66-16.07-1.14-32.15-2.25-48.36-2.25,15.76,3.81,31.64,6.51,47.53,9.18s31.86,4.68,47.85,6.5l2.31.26,1.45-1.73c18-21.37,35.48-43.15,51.29-66.38C1275.51,2141.32,1257.14,2161.34,1239.23,2181.76Z"/><path class="cls-5" d="M1241.46,2182l-2.23-.27c-.5.58-1,1.16-1.52,1.73Z"/><path class="cls-5" d="M1087.58,1727.82l-3.09-.37-2.08,2.38Z"/><path class="cls-5" d="M1121.17,1687c-12.67,13.1-24.71,26.75-36.68,40.46l3.09.37-5.17,2,2.08-2.38c-21-2.58-42-4.78-63.14-6.42-22.16-1.57-44.32-3.11-66.67-3.11,21.72,5.25,43.62,9,65.53,12.65s43.93,6.46,66,9l3.18.36,2-2.37c12.41-14.73,24.78-29.48,36.44-44.85,11.86-15.19,23.48-30.59,34.29-46.68C1147.83,1659.12,1134.38,1673,1121.17,1687Z"/><path class="cls-5" d="M1200.23,2052.6l-3.09-.37-2.09,2.39Z"/><path class="cls-5" d="M1233.82,2011.77c-12.68,13.11-24.71,26.76-36.68,40.46l3.09.37-5.18,2,2.09-2.39c-21-2.58-42-4.78-63.14-6.42-22.16-1.57-44.33-3.1-66.68-3.1,21.73,5.25,43.63,9,65.54,12.65,21.92,3.52,43.92,6.46,66,9l3.17.36,2-2.38c12.4-14.72,24.78-29.48,36.43-44.84,11.86-15.19,23.48-30.6,34.29-46.69C1260.47,1983.91,1247,1997.74,1233.82,2011.77Z"/><path class="cls-5" d="M1149.11,1894.69l-3.93-.48-2.67,3Z"/><path class="cls-5" d="M1145.18,1894.21l3.93.48-6.6,2.57,2.67-3q-40.14-5-80.49-8.23-21.17-1.68-42.4-2.77c-14.2-.41-28.34-1.26-42.6-1.14,13.83,3.46,27.78,6,41.67,8.91q20.89,3.94,41.87,7.26,41.94,6.62,84.1,11.38l4,.46,2.56-3c31.66-37.51,62.43-75.78,90.15-116.68C1208.89,1823.07,1176.59,1858.26,1145.18,1894.21Z"/><path class="cls-5" d="M1022.5,2087.14c-172.9-109.32-385.74-83-385.74-83s67.5,203.55,240.4,312.87,385.73,83,385.73,83S1195.4,2196.45,1022.5,2087.14Z"/><path class="cls-6" d="M1124.67,2307.19c-46.36-30.48-93.3-60.05-139.93-90.12-47.14-29.25-94-58.94-141.4-87.78l-71.24-43.05c-24-14-47.73-28.31-71.9-42,22.72,16,45.85,31.29,68.76,46.95l69.45,45.89c46.38,30.45,93.29,60.06,139.94,90.1,47.16,29.22,94,58.95,141.42,87.76L1191,2358c24,14,47.73,28.31,71.9,42-22.73-16-45.86-31.29-68.78-46.94Z"/><path class="cls-6" d="M771.15,2087.48l-1.32.82c0,.53-.06,1.06-.08,1.59Z"/><path class="cls-6" d="M769.83,2088.3l1.32-.82-1.4,2.41c0-.53,0-1.06.08-1.59q-13.58,8.32-26.78,17.23c-9.18,6.32-18.35,12.65-27.12,19.63,10.16-4.73,19.91-10.12,29.66-15.53s19.25-11.2,28.68-17.12l1.35-.85,0-1.56c.5-19.31.58-38.63-.89-58A556.4,556.4,0,0,0,769.83,2088.3Z"/><path class="cls-6" d="M1139.94,2320.64l-1.33.82c0,.53,0,1.06-.07,1.59Z"/><path class="cls-6" d="M1138.61,2321.46l1.33-.82-1.4,2.41c0-.53,0-1.06.07-1.59q-13.56,8.33-26.78,17.23c-9.18,6.31-18.35,12.64-27.12,19.63,10.17-4.73,19.92-10.12,29.66-15.53s19.25-11.21,28.68-17.12l1.36-.85,0-1.56c.51-19.31.58-38.64-.89-58A562.46,562.46,0,0,0,1138.61,2321.46Z"/><path class="cls-6" d="M860.86,2141.38l-1.83,1.13c0,.73-.06,1.46-.1,2.19Z"/><path class="cls-6" d="M865.86,2065c-2,13.25-3.35,26.53-4.44,39.81-1.2,12.56-1.82,25.13-2.39,37.7l1.83-1.13-1.93,3.32c0-.73.07-1.46.1-2.19-12.46,7.66-24.79,15.54-36.91,23.75-12.66,8.71-25.31,17.44-37.39,27.07,14-6.52,27.46-14,40.89-21.41s26.54-15.45,39.54-23.6l1.87-1.18.06-2.15c.36-13.31.69-26.62.36-40C867.32,2091.7,867,2078.36,865.86,2065Z"/><path class="cls-6" d="M1061.83,2268.43l-1.83,1.14c0,.73-.07,1.46-.1,2.18Z"/><path class="cls-6" d="M1066.83,2192.06c-2,13.25-3.36,26.52-4.45,39.81-1.2,12.55-1.82,25.12-2.38,37.7l1.83-1.14-1.93,3.32c0-.72.06-1.45.1-2.18q-18.7,11.47-36.92,23.75c-12.66,8.7-25.3,17.43-37.39,27.07,14-6.53,27.46-14,40.89-21.42s26.54-15.44,39.54-23.6l1.87-1.17.06-2.15c.36-13.32.69-26.63.37-40C1068.28,2218.76,1067.92,2205.42,1066.83,2192.06Z"/><path class="cls-6" d="M966.09,2205.08c-.78.48-1.55,1-2.33,1.44,0,.94-.09,1.87-.13,2.8Z"/><path class="cls-6" d="M963.76,2206.52c.78-.47,1.55-1,2.33-1.44l-2.46,4.24c0-.93.08-1.86.13-2.8q-23.85,14.64-47.08,30.26-12.16,8.22-24.12,16.78c-7.85,5.9-15.87,11.54-23.52,17.75,9-4.09,17.59-8.75,26.37-13.15q13-6.88,25.77-14.12,25.53-14.51,50.39-30.11l2.38-1.5.08-2.74c.94-33.94,1.08-67.9-1.57-102C967.53,2140.58,965.24,2173.54,963.76,2206.52Z"/><path class="cls-6" d="M1419.09,1961.72c-129.19,192.7-105.83,434.8-105.83,434.8s232.84-70.32,362-263,105.83-434.8,105.83-434.8S1548.29,1769,1419.09,1961.72Z"/><path class="cls-5" d="M1624.27,1923.27c-35.94,51.65-70.93,103.94-106.42,155.91-34.56,52.57-69.69,104.78-103.79,157.66l-51,79.45c-16.59,26.75-33.56,53.25-49.81,80.23,18.8-25.27,36.86-51,55.31-76.54l54.13-77.34c36-51.64,70.92-104,106.44-155.9,34.59-52.56,69.68-104.79,103.81-157.65l51-79.45c16.58-26.76,33.55-53.26,49.79-80.24-18.8,25.27-36.87,51-55.33,76.53Z"/><path class="cls-5" d="M1682.56,1848.52l-2.69-1.66,1.8.14q-9-15.64-18.72-30.89c-6.88-10.6-13.78-21.19-21.43-31.34,5,11.67,10.87,22.89,16.7,34.1s12.12,22.16,18.54,33l.92,1.57,1.77.09c21.88,1.16,43.78,1.84,65.8.76-21.11-3.71-42.33-5.76-63.58-7.32C1682,1847.51,1682.26,1848,1682.56,1848.52Z"/><path class="cls-5" d="M1682.56,1848.52c-.3-.51-.6-1-.89-1.52l-1.8-.14Z"/><path class="cls-5" d="M1407,2259.53c-.29-.51-.59-1-.89-1.52l-1.8-.14Z"/><path class="cls-5" d="M1407,2259.53l-2.69-1.66,1.8.14c-6-10.42-12.23-20.73-18.72-30.88-6.88-10.61-13.78-21.2-21.43-31.35,5.06,11.66,10.87,22.89,16.7,34.1s12.12,22.16,18.54,33l.92,1.57,1.77.09c21.88,1.16,43.79,1.84,65.8.76-21.11-3.71-42.33-5.76-63.58-7.32C1406.4,2258.52,1406.7,2259,1407,2259.53Z"/><path class="cls-5" d="M1618.72,1948.59c-.4-.7-.82-1.4-1.23-2.11l-2.48-.18Z"/><path class="cls-5" d="M1617.49,1946.48c.41.71.83,1.41,1.23,2.11l-3.71-2.29,2.48.18c-8.3-14.36-16.86-28.58-25.81-42.57-9.48-14.62-19-29.22-29.55-43.22,7,16.09,15,31.56,23,47s16.7,30.55,25.55,45.54l1.28,2.16,2.43.13c15.09.81,30.17,1.6,45.3,1.63,15.11.25,30.25.25,45.43-.58-15-2.72-30-4.61-45-6.25C1646,1948.59,1631.73,1947.51,1617.49,1946.48Z"/><path class="cls-5" d="M1468.55,2172.57c-.4-.71-.82-1.41-1.22-2.11l-2.48-.18Z"/><path class="cls-5" d="M1467.33,2170.46c.4.7.82,1.4,1.22,2.11l-3.7-2.29,2.48.18q-12.45-21.55-25.81-42.58c-9.49-14.62-19-29.22-29.55-43.21,7,16.08,15,31.55,23,47s16.71,30.56,25.56,45.55l1.27,2.16,2.44.13c15.08.81,30.16,1.59,45.29,1.63,15.12.25,30.25.25,45.44-.59-15-2.72-30-4.61-45-6.25C1495.8,2172.57,1481.56,2171.48,1467.33,2170.46Z"/><path class="cls-5" d="M1543.29,2066c-.51-.9-1-1.79-1.56-2.68l-3.16-.23Z"/><path class="cls-5" d="M1543.29,2066l-4.72-2.91,3.16.23q-15.86-27.48-32.87-54.3-8.94-14-18.29-27.85c-6.45-9.09-12.6-18.34-19.41-27.21,4.36,10.29,9.38,20.21,14.11,30.29q7.39,15,15.22,29.65,15.67,29.4,32.61,58l1.62,2.75,3.11.17c38.45,2.11,77,3.3,115.65,1.33-37.11-6.59-74.4-10.19-111.75-12.87C1542.25,2064.16,1542.78,2065.05,1543.29,2066Z"/><path class="cls-7" d="M1264.07,2545C1440,2672.39,1783.22,2728,2133.45,2663.33c642.65-118.63,797.09,89.5,1298.77,96.55,595.49,8.38,683.37-438.8,683.37-438.8H885.26C940.59,2522.77,1109.33,2433,1264.07,2545Z"/><polygon class="cls-8" points="1988.09 2326.85 2459.18 2326.85 2503.89 2003.95 2032.8 2003.95 1988.09 2326.85"/><polygon class="cls-9" points="2061.95 2326.86 2459.18 2326.86 2488.86 2112.49 2503.89 2003.94 2106.66 2003.94 2061.95 2326.86"/><path class="cls-10" d="M2062,2326.86h72.3c3-51,8.41-153.46,54.58-193.78,46.34-40.46,224.83-27,300-20.59l15-108.55H2106.66Z"/><path class="cls-8" d="M2603,2303.56H1889.06c-51.11,0-92.55,45.52-92.55,101.66h898.93c0-28.1-10.38-53.47-27.1-71.89S2628.48,2303.56,2603,2303.56Z"/><path class="cls-9" d="M2668.34,2333.33c-16.71-18.41-39.86-29.76-65.39-29.76H2026.39c-51.11,0-92.5,45.51-92.5,101.65h761.55a108.66,108.66,0,0,0-13.58-53A101.63,101.63,0,0,0,2668.34,2333.33Z"/><path class="cls-10" d="M2004.69,2362.76c-10.61-16.51,10.71-41.94,28.85-59.19h-7.15c-51.11,0-92.5,45.51-92.5,101.65h761.55a108.66,108.66,0,0,0-13.58-53C2563.73,2350,2020.34,2387.12,2004.69,2362.76Z"/><path class="cls-11" d="M2067.34,1028.78l-24-595.26c-1.63-40.6-35.88-73.52-76.48-73.52H779.5c-40.6,0-72.2,32.92-70.56,73.52l24,595.26c5.07,125.91,111.25,228,237.16,228H2304.5C2178.59,1256.77,2072.41,1154.69,2067.34,1028.78Z"/><path class="cls-12" d="M1894.41,534.63a25.35,25.35,0,0,0-25.11-24.14h-979a23,23,0,0,0-23.17,24.14l2.57,63.73a25.34,25.34,0,0,0,25.11,24.14h979A23,23,0,0,0,1897,598.36Z"/><path class="cls-12" d="M1882.85,683.58H890.71a16.74,16.74,0,0,0-16.85,17.56l1,24.13a18.44,18.44,0,0,0,18.27,17.55h992.14a16.73,16.73,0,0,0,16.85-17.55l-1-24.13A18.43,18.43,0,0,0,1882.85,683.58Z"/><path class="cls-12" d="M1886.47,773.55H894.33a16.73,16.73,0,0,0-16.85,17.55l1,24.13a18.43,18.43,0,0,0,18.26,17.56h992.14a16.74,16.74,0,0,0,16.85-17.56l-1-24.13A18.44,18.44,0,0,0,1886.47,773.55Z"/><path class="cls-9" d="M3168.39,755.48c-1.64-40.93-36.16-74.12-77.1-74.12H1376.87c-40.93,0-72.78,33.19-71.13,74.12l48.31,1200.2c1.65,40.94,36.17,74.12,77.1,74.12H3145.57c40.93,0,72.78-33.18,71.13-74.12Z"/><path class="cls-8" d="M3172.49,755.31c-1.73-43-38.16-78-81.2-78H1353.16a74.74,74.74,0,0,0-75.23,78.39l48.31,1200.2c1.74,43,38.17,78.05,81.21,78.05H3145.57a74.74,74.74,0,0,0,75.23-78.38Zm21.64,1250a66.61,66.61,0,0,1-48.56,20.43H1431.15c-38.69,0-71.45-31.48-73-70.18L1309.84,755.31a66.54,66.54,0,0,1,67-69.85H3091.29c38.7,0,71.45,31.48,73,70.19l48.31,1200.2A66.74,66.74,0,0,1,3194.13,2005.27Z"/><path class="cls-13" d="M3048.28,747.2H1425.18A49.79,49.79,0,0,0,1375,799.45l39.24,974.94h1727.6l-39.25-974.94C3101.47,770.59,3077.14,747.2,3048.28,747.2Z"/><path class="cls-14" d="M2896.63,677.26H1562.19l38.82,964.5c1.1,27.25,24.08,49.34,51.33,49.34H2888.09a47,47,0,0,0,47.36-49.34Z"/><path class="cls-11" d="M2865.76,665.58l-1.21-30a29.18,29.18,0,0,0-28.91-27.78H1695.86a26.48,26.48,0,0,0-26.67,27.78l1.22,30,16.35,406.32a29.18,29.18,0,0,0,28.9,27.78H2855.44a26.47,26.47,0,0,0,26.67-27.78Z"/><path class="cls-15" d="M2894.6,636.74l-1.21-30a29.17,29.17,0,0,0-28.9-27.78H1724.71A26.48,26.48,0,0,0,1698,606.7l1.21,30,16.35,406.31a29.18,29.18,0,0,0,28.91,27.79H2884.29a26.48,26.48,0,0,0,26.67-27.79Z"/><path class="cls-8" d="M3209.4,1770.29H1346.76a4.1,4.1,0,0,0,0,8.2H3209.4a4.1,4.1,0,0,0,0-8.2Z"/><path class="cls-11" d="M2875.63,1185.15a29.18,29.18,0,0,0-28.91-27.79H2201.59a26.48,26.48,0,0,0-26.67,27.79l15.4,382.6a29.17,29.17,0,0,0,28.9,27.78h645.14a26.47,26.47,0,0,0,26.67-27.78Z"/><path class="cls-11" d="M2118.44,1185.15a29.18,29.18,0,0,0-28.9-27.79h-382.6a26.48,26.48,0,0,0-26.67,27.79l15.4,382.6a29.18,29.18,0,0,0,28.91,27.78h382.6a26.47,26.47,0,0,0,26.66-27.78Z"/><path class="cls-15" d="M2904.47,1156.31a29.18,29.18,0,0,0-28.9-27.79H2230.43a26.49,26.49,0,0,0-26.67,27.79l15.4,382.6a29.18,29.18,0,0,0,28.91,27.78H2893.2a26.48,26.48,0,0,0,26.67-27.78Z"/><path class="cls-15" d="M2147.28,1156.31a29.17,29.17,0,0,0-28.9-27.79h-382.6a26.49,26.49,0,0,0-26.67,27.79l15.41,382.6a29.17,29.17,0,0,0,28.9,27.78H2136a26.49,26.49,0,0,0,26.67-27.78Z"/><polygon class="cls-16" points="2078.71 1161.46 2080.59 1191.87 2110.99 1191.87 2109.11 1161.46 2078.71 1161.46"/><polygon class="cls-17" points="1930.41 1161.46 1932.29 1191.87 2059.37 1191.87 2057.5 1161.46 1930.41 1161.46"/><polygon class="cls-9" points="2083.95 1255.85 2085.83 1286.25 2116.23 1286.25 2114.36 1255.85 2083.95 1255.85"/><polygon class="cls-17" points="1935.83 1255.85 1937.7 1286.25 2064.61 1286.25 2062.74 1255.85 1935.83 1255.85"/><polygon class="cls-11" points="2080.64 1208.65 2082.51 1239.06 2112.92 1239.06 2111.04 1208.65 2080.64 1208.65"/><polygon class="cls-17" points="1932.52 1208.65 1934.39 1239.06 2061.3 1239.06 2059.43 1208.65 1932.52 1208.65"/><path class="cls-18" d="M2820.75,1464.66a4.84,4.84,0,0,0-1.59-3.42,5.52,5.52,0,0,0-3.56-1.14h-41.39c-4.51,0-8.36,3.8-8.08,8l3.69,57a4.79,4.79,0,0,0,1.58,3.42,5.52,5.52,0,0,0,3.56,1.14h41.39c4.51,0,8.36-3.8,8.08-8Z"/><path class="cls-15" d="M2683.28,1286.35a8.8,8.8,0,0,1-1.69-.16,9.27,9.27,0,0,1-1.67.16Z"/><path class="cls-15" d="M2682.85,1179.68a8.67,8.67,0,0,0-2.42-5.61,6.6,6.6,0,0,0-3.43-1.71c-5.61,1-9.93,6.67-9.38,12.9l8.12,93.61a8.77,8.77,0,0,0,2.42,5.61,6.75,6.75,0,0,0,3.43,1.71c5.61-1,9.94-6.68,9.39-12.91Z"/><path class="cls-15" d="M2675.32,1172.2a8.63,8.63,0,0,1,1.68.16,9.38,9.38,0,0,1,1.68-.16Z"/><path class="cls-15" d="M2653.88,1270.63a6.13,6.13,0,0,1-1.22-.12,7,7,0,0,1-1.21.12Z"/><path class="cls-15" d="M2648.11,1187.92a6.06,6.06,0,0,1,1.22.12,7,7,0,0,1,1.22-.12Z"/><path class="cls-15" d="M2653.57,1193.34a6.31,6.31,0,0,0-1.75-4.06,4.81,4.81,0,0,0-2.49-1.24,8.69,8.69,0,0,0-6.79,9.35l5.88,67.82a6.31,6.31,0,0,0,1.75,4.06,4.77,4.77,0,0,0,2.49,1.24,8.7,8.7,0,0,0,6.8-9.35Z"/><path class="cls-15" d="M2631.47,1256.44a4.38,4.38,0,0,1-.77-.08,4.58,4.58,0,0,1-.83.08Z"/><path class="cls-15" d="M2627.68,1202.11a4.59,4.59,0,0,1,.78.08,5.56,5.56,0,0,1,.82-.08Z"/><path class="cls-15" d="M2631.27,1205.67a4.2,4.2,0,0,0-1.15-2.67,3.15,3.15,0,0,0-1.66-.81,5.73,5.73,0,0,0-4.44,6.14l3.87,44.55a4.08,4.08,0,0,0,1.15,2.67,3.15,3.15,0,0,0,1.66.81,5.72,5.72,0,0,0,4.43-6.14Z"/><path class="cls-17" d="M2705.78,1418.29a4.84,4.84,0,0,0-1.59-3.42,5.5,5.5,0,0,0-3.56-1.14h-41.39c-4.51,0-8.36,3.8-8.08,8l8.09,103.43a4.85,4.85,0,0,0,1.58,3.41,5.48,5.48,0,0,0,3.57,1.15h41.39c4.51,0,8.36-3.79,8.08-8Z"/><path class="cls-17" d="M2592.5,1345.59a4.89,4.89,0,0,0-1.58-3.42,5.53,5.53,0,0,0-3.57-1.14H2546c-4.51,0-8.36,3.79-8.08,8l10.8,176.13a4.84,4.84,0,0,0,1.59,3.42,5.52,5.52,0,0,0,3.56,1.14h41.39c4.51,0,8.36-3.8,8.08-8Z"/><path class="cls-19" d="M2477.61,1295.24a4.89,4.89,0,0,0-1.58-3.42,5.53,5.53,0,0,0-3.57-1.14h-41.39c-4.51,0-8.36,3.79-8.08,8l15.13,226.49a4.85,4.85,0,0,0,1.58,3.42,5.53,5.53,0,0,0,3.57,1.14h41.39c4.51,0,8.36-3.79,8.08-8Z"/><path class="cls-19" d="M2363.08,1233.31a4.81,4.81,0,0,0-1.58-3.42,5.47,5.47,0,0,0-3.57-1.14h-41.39c-4.5,0-8.35,3.8-8.07,8l19.08,288.43a4.84,4.84,0,0,0,1.59,3.42,5.52,5.52,0,0,0,3.56,1.14h41.39c4.51,0,8.36-3.8,8.08-8Z"/><path class="cls-9" d="M2808.66,1371.23h0c-.66,0-45.07-2.57-104.24-23.1-54.19-18.81-132.25-57-196.93-132.39l15.13-14.67L2495,1192.3l-27.62-8.77,7.39,28.38,7.38,28.39,15.42-15c67.83,78.66,149.21,118.45,205.71,138,61.49,21.27,106.41,23.74,108.29,23.83l-1.46-8Z"/><path class="cls-15" d="M2387.2,1165.53H2273c-2,0-3.29,1.74-2.8,3.89a5.06,5.06,0,0,0,4.58,3.88H2389c2,0,3.29-1.74,2.8-3.89A5,5,0,0,0,2387.2,1165.53Z"/><path class="cls-15" d="M2388.53,1179.64H2274.34c-2,0-3.29,1.74-2.8,3.89a5,5,0,0,0,4.57,3.89H2390.3c2,0,3.29-1.74,2.8-3.89A5,5,0,0,0,2388.53,1179.64Z"/><path class="cls-15" d="M2389.85,1193.76H2275.66c-2,0-3.29,1.74-2.8,3.89a5,5,0,0,0,4.58,3.89h114.19c2,0,3.29-1.74,2.8-3.89A5.06,5.06,0,0,0,2389.85,1193.76Z"/><path class="cls-20" d="M2763.36,1191.92l10.23,44.77h-42.45c5.65,24.73,29.24,44.77,52.68,44.77s37.87-20,32.22-44.77S2786.81,1191.92,2763.36,1191.92Z"/><path class="cls-18" d="M2724,1230.59h42.46l-10.23-44.77C2732.77,1185.82,2718.34,1205.86,2724,1230.59Z"/><ellipse class="cls-8" cx="2330.11" cy="1891.61" rx="42.58" ry="50.82"/><ellipse class="cls-11" cx="2318.97" cy="1891.61" rx="42.58" ry="50.82"/><polygon class="cls-18" points="1760.43 1309.89 1767.25 1513.85 1838.46 1513.85 1831.57 1307.66 1760.43 1309.89"/><polygon class="cls-18" points="1897.65 1370.19 1902.45 1513.85 1973.66 1513.85 1968.79 1367.96 1897.65 1370.19"/><polygon class="cls-18" points="2044.7 1430.17 2047.5 1513.85 2118.71 1513.85 2115.84 1427.94 2044.7 1430.17"/><path class="cls-9" d="M2118.05,1380.14a5.86,5.86,0,0,0-4.78-2.15l-97.76,3.06-8.25-19.24a5.77,5.77,0,0,0-5.51-3.36l-14.86.47-31-58.79a5.78,5.78,0,0,0-5.33-3l-82.62,2.59-51.11-44.9,20.52-5.79-59.89-21.42,26.67,54.64,4.84-19.57,52.84,46.42a6,6,0,0,0,4.11,1.44l81.31-2.54,31,58.78a5.78,5.78,0,0,0,5.32,3l14.55-.46,8.26,19.24a5.73,5.73,0,0,0,5.5,3.36l98.77-3.09,17,21.31a5.86,5.86,0,0,0,4.78,2.16,6.05,6.05,0,0,0,3.25-1.07,5.16,5.16,0,0,0,1.17-7.53Z"/><path class="cls-20" d="M2864.49,578.92H1724.71A26.48,26.48,0,0,0,1698,606.7l1.21,30H2894.6l-1.21-30A29.17,29.17,0,0,0,2864.49,578.92Z"/><polygon class="cls-15" points="1821.53 611.36 1821.92 617.58 1849.91 617.58 1849.53 611.36 1821.53 611.36"/><polygon class="cls-15" points="1783.06 616.19 1787.73 620.59 1806.3 600.79 1801.63 596.4 1783.06 616.19"/><polygon class="cls-15" points="1782.11 600.79 1803.12 620.59 1807.25 616.19 1786.23 596.4 1782.11 600.79"/><path class="cls-15" d="M1744.63,595.07l1.58,25.52h25.52l-1.58-25.52Zm6.22,20.57-1-15.63h15.63l1,15.63Z"/><path class="cls-15" d="M2793.4,603.08a5.47,5.47,0,0,0-5.53,5.89,6.34,6.34,0,0,0,6.25,5.89,5.47,5.47,0,0,0,5.53-5.89A6.35,6.35,0,0,0,2793.4,603.08Z"/><path class="cls-15" d="M2817.87,603.08a5.47,5.47,0,0,0-5.53,5.89,6.34,6.34,0,0,0,6.25,5.89,5.47,5.47,0,0,0,5.53-5.89A6.35,6.35,0,0,0,2817.87,603.08Z"/><path class="cls-15" d="M2842.34,603.08a5.48,5.48,0,0,0-5.53,5.89,6.35,6.35,0,0,0,6.26,5.89,5.47,5.47,0,0,0,5.52-5.89A6.35,6.35,0,0,0,2842.34,603.08Z"/><rect class="cls-11" x="2074.56" y="963.21" width="30.33" height="38.32"/><rect class="cls-11" x="2087.47" y="950.84" width="4.52" height="57.28"/><rect class="cls-11" x="2120.49" y="943.28" width="30.33" height="27.31"/><rect class="cls-11" x="2133.39" y="928.99" width="4.52" height="66.1"/><rect class="cls-11" x="2441.97" y="975.04" width="30.33" height="27.31"/><rect class="cls-11" x="2454.88" y="960.75" width="4.52" height="66.1"/><rect class="cls-11" x="2717.53" y="900.9" width="30.33" height="38"/><rect class="cls-11" x="2730.43" y="881.03" width="4.52" height="91.97"/><rect class="cls-11" x="2028.64" y="997.29" width="30.33" height="25.66"/><rect class="cls-11" x="2041.54" y="989.08" width="4.52" height="46.81"/><rect class="cls-11" x="2396.05" y="971.03" width="30.33" height="18.53"/><rect class="cls-11" x="2408.95" y="965.09" width="4.52" height="33.81"/><rect class="cls-11" x="2350.12" y="957.69" width="30.33" height="32.46"/><rect class="cls-11" x="2363.02" y="947.3" width="4.52" height="59.21"/><rect class="cls-11" x="2304.19" y="944.47" width="30.33" height="51.77"/><rect class="cls-11" x="2317.1" y="927.75" width="4.52" height="77.39"/><rect class="cls-11" x="2258.27" y="946.78" width="30.33" height="15.91"/><rect class="cls-11" x="2271.17" y="941.68" width="4.52" height="29.03"/><rect class="cls-11" x="2212.34" y="932.63" width="30.33" height="32.46"/><rect class="cls-11" x="2225.24" y="922.24" width="4.52" height="59.21"/><rect class="cls-11" x="2166.41" y="958.69" width="30.33" height="32.53"/><rect class="cls-11" x="2179.32" y="940.45" width="4.52" height="57.29"/><rect class="cls-11" x="2533.82" y="929.66" width="30.33" height="38.32"/><rect class="cls-11" x="2546.73" y="917.28" width="4.52" height="57.28"/><rect class="cls-11" x="2579.75" y="909.72" width="30.33" height="27.31"/><rect class="cls-11" x="2592.65" y="895.44" width="4.52" height="66.1"/><rect class="cls-11" x="2487.9" y="963.74" width="30.33" height="25.66"/><rect class="cls-11" x="2500.8" y="955.52" width="4.52" height="46.81"/><rect class="cls-11" x="2671.6" y="894.43" width="30.33" height="17.93"/><rect class="cls-11" x="2684.5" y="888.69" width="4.52" height="32.71"/><rect class="cls-11" x="2625.67" y="925.14" width="30.33" height="32.53"/><rect class="cls-11" x="2638.58" y="906.9" width="4.52" height="57.28"/><rect class="cls-11" x="1894.51" y="980.15" width="30.33" height="38.32"/><rect class="cls-11" x="1907.41" y="967.77" width="4.52" height="57.28"/><rect class="cls-11" x="1940.43" y="960.21" width="30.33" height="27.31"/><rect class="cls-11" x="1953.34" y="945.93" width="4.52" height="66.1"/><rect class="cls-11" x="1848.58" y="1012.22" width="30.33" height="19.41"/><rect class="cls-11" x="1861.49" y="1006.01" width="4.52" height="35.41"/><rect class="cls-11" x="1986.36" y="975.62" width="30.33" height="32.53"/><rect class="cls-11" x="1999.27" y="957.38" width="4.52" height="57.28"/><rect class="cls-21" x="2070.74" y="787.66" width="30.33" height="82.88"/><rect class="cls-21" x="2083.64" y="715.15" width="4.52" height="169.64"/><rect class="cls-21" x="2116.66" y="698.8" width="30.33" height="104.82"/><rect class="cls-21" x="2129.57" y="667.91" width="4.52" height="188.71"/><rect class="cls-21" x="2438.15" y="813.23" width="30.33" height="59.07"/><rect class="cls-21" x="2451.05" y="782.35" width="4.52" height="142.97"/><rect class="cls-21" x="2713.7" y="706.89" width="30.33" height="97.43"/><rect class="cls-21" x="2726.61" y="663.91" width="4.52" height="198.91"/><rect class="cls-16" x="2024.81" y="861.37" width="30.33" height="55.49"/><rect class="cls-16" x="2037.72" y="843.6" width="4.52" height="101.24"/><rect class="cls-16" x="2392.22" y="804.56" width="30.33" height="40.09"/><rect class="cls-16" x="2405.13" y="791.72" width="4.52" height="73.13"/><rect class="cls-21" x="2346.29" y="729.98" width="30.33" height="115.94"/><rect class="cls-21" x="2359.2" y="707.5" width="4.52" height="173.81"/><rect class="cls-21" x="2313.66" y="701.38" width="17.04" height="157.71"/><rect class="cls-21" x="2320.91" y="665.22" width="2.54" height="213.13"/><rect class="cls-21" x="2254.44" y="706.38" width="30.33" height="34.42"/><rect class="cls-21" x="2267.35" y="695.36" width="4.52" height="108.54"/><rect class="cls-16" x="2208.52" y="675.78" width="30.33" height="115.94"/><rect class="cls-16" x="2221.42" y="653.3" width="4.52" height="173.81"/><rect class="cls-21" x="2162.59" y="732.13" width="30.33" height="116.1"/><rect class="cls-21" x="2175.49" y="692.69" width="4.52" height="169.64"/><rect class="cls-21" x="2530" y="699.85" width="30.33" height="98.12"/><rect class="cls-21" x="2542.9" y="673.08" width="4.52" height="139.14"/><rect class="cls-21" x="2575.92" y="766.08" width="30.33" height="74.32"/><rect class="cls-21" x="2588.83" y="735.19" width="4.52" height="158.21"/><rect class="cls-16" x="2484.07" y="788.81" width="30.33" height="55.49"/><rect class="cls-16" x="2496.98" y="771.03" width="4.52" height="101.24"/><rect class="cls-16" x="2667.78" y="683.68" width="30.33" height="38.78"/><rect class="cls-16" x="2680.68" y="671.26" width="4.52" height="116.49"/><rect class="cls-21" x="2621.85" y="690.07" width="30.33" height="146.6"/><rect class="cls-21" x="2634.76" y="650.63" width="4.52" height="200.13"/><rect class="cls-21" x="1890.68" y="824.29" width="30.33" height="82.88"/><rect class="cls-21" x="1903.59" y="797.52" width="4.52" height="123.89"/><rect class="cls-16" x="1936.61" y="735.42" width="30.33" height="104.82"/><rect class="cls-16" x="1949.52" y="704.53" width="4.52" height="188.71"/><rect class="cls-16" x="1844.76" y="893.66" width="30.33" height="41.98"/><rect class="cls-16" x="1857.66" y="880.22" width="4.52" height="76.58"/><rect class="cls-21" x="1982.54" y="814.5" width="30.33" height="70.36"/><rect class="cls-21" x="1995.44" y="729.31" width="4.52" height="169.64"/><path class="cls-22" d="M3446.23,2336.54s-68.49-17.85-122.88-15.36a297.37,297.37,0,0,1-3.84,42.7c-12.39,76.82-50.33,131.12-50.33,131.12s-3.39,2.27-9.12,5.63c-13.9,8.09-41.59,22.46-68.49,25.89-38,4.86-44.46,25.06-44.46,25.06,8.08,43.66,87.31,50.93,150.36,38.81s92.17-102.67,92.17-102.67l17,88.12h25.07s25.06-162.5,26.67-190c1.61-27.08-11.72-48.67-12.11-49.3Z"/><path class="cls-15" d="M3323.35,2321.18a297.37,297.37,0,0,1-3.84,42.7c50.86-26.43,126.72-27.34,126.72-27.34S3377.74,2318.69,3323.35,2321.18Z"/><path d="M3323.24,2318.78l-2.26.1,0,2.26a294.57,294.57,0,0,1-3.8,42.35l-.77,4.73,4.25-2.21c49.75-25.85,124.89-27.05,125.64-27.06l17.91-.22-17.33-4.52C3446.15,2334,3377.37,2316.3,3323.24,2318.78Zm-.64,40.86a299.32,299.32,0,0,0,3.11-36.15c36.89-1.29,80.17,6.57,103.31,11.54C3404.42,2336.88,3358.2,2342.54,3322.6,2359.64Z"/><path class="cls-23" d="M3446.23,2336.54s-18-5.42-28.38,6.33c-14.35,16.15-43.77,44.35-43.77,61.86,0,15.55-3.23,103.74-53.75,112.36a55.85,55.85,0,0,1-21.55-.87c-16.92-3.75-29.45-9.31-38.72-15.59-13.9,8.09-41.59,22.46-68.49,25.89-38,4.85-44.46,25.06-44.46,25.06.08.4.15.8.24,1.19,9.29,42.59,87.65,49.62,150.12,37.62,63.06-12.13,92.17-102.67,92.17-102.67l17,88.12h25.07s25.06-162.5,26.67-190c1.61-27.08-11.72-48.67-12.11-49.3Z"/><path class="cls-24" d="M3298.78,2516.22c-16.92-3.75-29.45-9.31-38.72-15.59-13.9,8.09-41.59,22.46-68.49,25.89-38,4.85-44.46,25.06-44.46,25.06.08.4.15.8.24,1.19,14.23,6.67,41.08,8.3,80.07,11.33,46,3.59,77-26.19,92.91-47A55.85,55.85,0,0,1,3298.78,2516.22Z"/><path class="cls-22" d="M3860.45,2208.37h0s-67.59,21-112.47,51.84a297.2,297.2,0,0,1,19.29,38.28c30,71.78,26.49,137.93,26.49,137.93s-1.67,3.72-4.77,9.6c-7.53,14.21-23.46,41-44.49,58.15-29.71,24.19-24.53,44.76-24.53,44.76,29.92,32.8,101.05-2.85,148.19-46.44s24.06-135.86,24.06-135.86l60.94,65.87,21.29-13.23s-64.53-151.23-77.67-175.43C3883.83,2220,3861.12,2208.7,3860.45,2208.37Z"/><path class="cls-15" d="M3767.26,2298.49c29.23-49.29,93.18-90.12,93.18-90.12s-67.59,21-112.47,51.84A297.2,297.2,0,0,1,3767.26,2298.49Z"/><path d="M3746.61,2258.23l-1.86,1.28,1.16,1.94a296.28,296.28,0,0,1,19.13,38l1.85,4.42,2.44-4.12c28.6-48.22,91.77-88.92,92.4-89.33l15.1-9.64-17.11,5.32C3859.05,2206.28,3791.27,2227.54,3746.61,2258.23Zm21,35a299.84,299.84,0,0,0-16.45-32.34c30.65-20.59,71.55-36.76,93.82-44.76C3825.11,2230.73,3788.84,2259.94,3767.65,2293.27Z"/><path class="cls-23" d="M3860.46,2208.37h0s-18.11,4.89-20.77,20.36c-3.65,21.3-13.74,60.79-4.5,75.66,8.27,13.3,52.68,90.9,12.84,124.51a56.6,56.6,0,0,1-17.92,9.92c-16.34,5.75-29.92,7.65-41.12,7.21-7.53,14.21-23.45,41-44.48,58.15-9.35,7.61-15.24,14.86-18.93,21.23-8,13.87-5.6,23.53-5.6,23.53,29.92,32.81,101-2.86,148.19-46.44,46.78-43.26,24.41-134.43,24.06-135.84l60.94,65.86,21.28-13.24s-64.52-151.24-77.67-175.43C3883.83,2220,3861.12,2208.7,3860.46,2208.37Z"/><path class="cls-24" d="M3789,2446c-7.53,14.21-23.45,41-44.48,58.15-9.35,7.61-15.24,14.86-18.93,21.23,19.64,1.43,46.08-6.81,79.32-21.15,36.36-15.67,42.74-53.17,43.13-75.36a56.6,56.6,0,0,1-17.92,9.92C3813.75,2444.56,3800.17,2446.46,3789,2446Z"/><path class="cls-19" d="M3656.67,1449.4c0-65.47-28.06-153.67-44.59-184.15-29.2,10.89-106.68,39.15-165,54.88-54.28,14.65-145.59,15.9-189.28,15.57l-3.67,1s-33.13,308.12-38.1,376c0,0-11.6,129.22-11.6,152.41S3221,2397,3221,2397s104.56,19.61,193.83,8.33h.07c.91-.12,1.81-.23,2.71-.36h0l.51-.07h0a291.41,291.41,0,0,0,36.07-7.07c35.93-9.61,65.38-26.68,78.17-55.48L3451.26,1852l187.19,437.3s127.55,71.24,217,0,97.74-112.64,97.74-112.64l-233.58-402.55S3656.67,1522.28,3656.67,1449.4Z"/><path class="cls-25" d="M3427,1713.13c-4.67-47.69-14-151.23-14-151.23s-17.44,238.47-15.12,353.64c2,99.31,44.67,401,56.37,482.23,35.93-9.61,65.38-26.68,78.17-55.48L3451.26,1852S3431.62,1760.82,3427,1713.13Z"/><path class="cls-26" d="M3727.46,2254.38c-71.31-20.38-274.29-398.85-276.2-402.4l187.19,437.3s127.55,71.24,217,0,97.74-112.64,97.74-112.64S3799.12,2274.85,3727.46,2254.38Z"/><path class="cls-26" d="M3294.8,2358.28c-48.71-35.28-90.38-493.08-90.38-493.08,0,23.2,16.57,531.76,16.57,531.76s104.56,19.61,193.83,8.33C3390.8,2407.57,3341.62,2392.18,3294.8,2358.28Z"/><path class="cls-15" d="M3575.22,1650.63l-4.53,1.22c1.06,3.89,2.15,7.79,3.26,11.6l4.5-1.31C3577.35,1658.36,3576.26,1654.49,3575.22,1650.63Z"/><path class="cls-15" d="M3593.71,1720.36c1.57,3.77,3.18,7.5,4.79,11.08l4.28-1.92c-1.59-3.54-3.19-7.23-4.73-11Z"/><path class="cls-15" d="M3585,1697.86c1.36,3.8,2.77,7.61,4.2,11.3l4.37-1.68c-1.41-3.66-2.81-7.43-4.16-11.2Z"/><path class="cls-15" d="M3581.89,1673.6l-4.48,1.39c1.2,3.85,2.44,7.71,3.69,11.47l4.45-1.48C3584.31,1681.25,3583.08,1677.42,3581.89,1673.6Z"/><path class="cls-15" d="M3603.62,1742.38c1.79,3.67,3.63,7.29,5.48,10.77l4.14-2.2c-1.82-3.43-3.64-7-5.4-10.63Z"/><path class="cls-15" d="M3614.92,1763.71q2.88,5.13,5.9,10.47l4.08-2.3-5.89-10.47Z"/><polygon class="cls-15" points="3650.5 1826.44 3656.39 1836.73 3656.47 1836.86 3660.54 1834.54 3654.57 1824.11 3650.5 1826.44"/><path class="cls-15" d="M3638.59,1805.56l5.95,10.44,4.07-2.32q-3-5.28-5.94-10.44Z"/><path class="cls-15" d="M3626.73,1784.65q2.91,5.14,5.92,10.46l4.08-2.31q-3-5.31-5.92-10.46Z"/><path class="cls-15" d="M3546.15,1485.65l-4.66.49q.62,5.94,1.3,12l4.66-.53Q3546.76,1491.57,3546.15,1485.65Z"/><path class="cls-15" d="M3541.88,1437.89l-4.68.35q.45,5.92.94,12l4.68-.38Q3542.33,1443.81,3541.88,1437.89Z"/><rect class="cls-15" x="3665.13" y="1845.32" width="4.69" height="12.01" transform="translate(-434.84 2072.19) rotate(-29.87)"/><path class="cls-15" d="M3543.84,1461.79l-4.67.41q.52,5.94,1.11,12l4.67-.46Q3544.37,1467.71,3543.84,1461.79Z"/><path class="cls-15" d="M3569.33,1627.43l-4.57,1.08c.93,3.92,1.9,7.85,2.87,11.69l4.55-1.15C3571.21,1635.23,3570.25,1631.32,3569.33,1627.43Z"/><path class="cls-15" d="M3540.24,1414l-4.68.29q.36,5.91.78,12l4.68-.32Q3540.6,1419.86,3540.24,1414Z"/><path class="cls-15" d="M3559.52,1580.49l-4.61.85c.72,3.94,1.47,7.92,2.23,11.82l4.6-.89C3561,1588.38,3560.24,1584.42,3559.52,1580.49Z"/><path class="cls-15" d="M3555.48,1556.89l-4.63.75q.95,5.92,2,11.85l4.63-.79Q3556.42,1562.79,3555.48,1556.89Z"/><path class="cls-15" d="M3551.94,1533.24l-4.65.65q.84,5.92,1.72,11.88l4.64-.7Q3552.77,1539.15,3551.94,1533.24Z"/><path class="cls-15" d="M3548.84,1509.47l-4.66.57q.74,5.94,1.51,11.93l4.65-.61Q3549.56,1515.41,3548.84,1509.47Z"/><path class="cls-15" d="M3564.11,1604l-4.59,1c.82,3.94,1.68,7.9,2.54,11.79l4.58-1C3565.78,1611.88,3564.93,1607.93,3564.11,1604Z"/><rect class="cls-15" x="3834.4" y="2135.97" width="4.69" height="12.02" transform="translate(-556.34 2239.54) rotate(-30.45)"/><rect class="cls-15" x="3822.23" y="2115.25" width="4.69" height="12.02" transform="translate(-547.57 2228.32) rotate(-30.42)"/><rect class="cls-15" x="3677.11" y="1866.15" width="4.69" height="12.01" transform="translate(-443.32 2086.9) rotate(-29.95)"/><rect class="cls-15" x="3810.07" y="2094.52" width="4.69" height="12.01" transform="translate(-538.8 2217.51) rotate(-30.39)"/><rect class="cls-15" x="3883.23" y="2218.86" width="4.69" height="12.05" transform="translate(-591.52 2283.88) rotate(-30.55)"/><path class="cls-15" d="M3896.79,2239.28l-4,2.38,2,3.36,2-1.18h2.34c0-.64-.1-.82-.78-2Z"/><rect class="cls-15" x="3797.91" y="2073.8" width="4.69" height="12.01" transform="translate(-530.04 2206.43) rotate(-30.37)"/><rect class="cls-15" x="3870.99" y="2198.13" width="4.69" height="12.03" transform="translate(-582.71 2272.1) rotate(-30.52)"/><rect class="cls-15" x="3858.78" y="2177.41" width="4.69" height="12.02" transform="translate(-573.91 2261.46) rotate(-30.5)"/><rect class="cls-15" x="3846.59" y="2156.69" width="4.69" height="12.02" transform="translate(-565.12 2250.43) rotate(-30.47)"/><rect class="cls-15" x="3701.14" y="1907.75" width="4.69" height="12.01" transform="translate(-460.46 2113.45) rotate(-30.07)"/><rect class="cls-15" x="3713.16" y="1928.5" width="4.69" height="11.99" transform="translate(-469.07 2125.85) rotate(-30.12)"/><rect class="cls-15" x="3725.22" y="1949.26" width="4.69" height="12.03" transform="translate(-477.72 2138.09) rotate(-30.17)"/><path class="cls-15" d="M3686.42,1888.94l6,10.4,4.06-2.35-6-10.4Z"/><rect class="cls-15" x="3761.53" y="2011.58" width="4.69" height="12.01" transform="translate(-503.83 2172.92) rotate(-30.28)"/><rect class="cls-15" x="3785.77" y="2053.06" width="4.69" height="12.01" transform="translate(-521.3 2195.28) rotate(-30.34)"/><rect class="cls-15" x="3773.64" y="2032.33" width="4.69" height="12.01" transform="translate(-512.54 2184.58) rotate(-30.31)"/><rect class="cls-15" x="3749.42" y="1990.83" width="4.69" height="12.01" transform="translate(-495.12 2161.29) rotate(-30.24)"/><rect class="cls-15" x="3737.33" y="1970.07" width="4.69" height="12.01" transform="translate(-486.43 2149.6) rotate(-30.2)"/><path class="cls-15" d="M3322.88,1352.34c-.18-3.95-.54-8-1.05-12.13l-4.65.58c.5,4,.84,7.94,1,11.77Z"/><path class="cls-15" d="M3263.05,1447.49l2,4.25a115,115,0,0,0,10.8-5.8l-2.43-4A110.3,110.3,0,0,1,3263.05,1447.49Z"/><path class="cls-15" d="M3240.9,1455.11l.83,4.62a87.28,87.28,0,0,0,12-3.36l-1.54-4.43A83.63,83.63,0,0,1,3240.9,1455.11Z"/><path class="cls-15" d="M3283.09,1435.29l2.87,3.7a98.53,98.53,0,0,0,9.22-8.12l-3.31-3.32A94.64,94.64,0,0,1,3283.09,1435.29Z"/><path class="cls-15" d="M3317.15,1376l4.65.67a119.1,119.1,0,0,0,1.12-12.16l-4.68-.2A115.82,115.82,0,0,1,3317.15,1376Z"/><path class="cls-15" d="M3311.13,1398.57l4.34,1.77a96.85,96.85,0,0,0,3.88-11.64l-4.53-1.21A92.25,92.25,0,0,1,3311.13,1398.57Z"/><path class="cls-15" d="M3299.58,1418.78l3.72,2.86a92,92,0,0,0,6.81-10.25l-4.07-2.32A87,87,0,0,1,3299.58,1418.78Z"/><path class="cls-15" d="M3381.23,1359.76l-4.63-.73c-.62,4-1.2,8-1.74,11.94l4.65.63C3380,1367.67,3380.62,1363.69,3381.23,1359.76Z"/><path class="cls-15" d="M3385.48,1336.24l-4.58-1s-1,4.54-2.3,11.9l4.61.82C3384.52,1340.7,3385.47,1336.28,3385.48,1336.24Z"/><path class="cls-15" d="M3376,1407.27l-4.69-.28c-.23,4.11-.4,8.17-.5,12.08l4.69.11C3375.59,1415.33,3375.76,1411.32,3376,1407.27Z"/><path class="cls-15" d="M3378,1383.46l-4.66-.52c-.45,4-.85,8.07-1.19,12l4.67.41C3377.2,1391.45,3377.6,1387.45,3378,1383.46Z"/><path class="cls-15" d="M3378,1479.23a60.52,60.52,0,0,0,5.42,11.21l4-2.49a56,56,0,0,1-5-10.35Z"/><path class="cls-15" d="M3391.73,1500a31.54,31.54,0,0,0,11.37,6l1.28-4.51a26.67,26.67,0,0,1-9.68-5.09Z"/><path class="cls-15" d="M3377.08,1454.77l-4.65.62c.57,4.25,1.28,8.3,2.13,12l4.57-1C3378.31,1462.79,3377.62,1458.88,3377.08,1454.77Z"/><path class="cls-15" d="M3375.44,1431.1l-4.69.08c.07,4.19.23,8.26.49,12.11l4.68-.31C3375.67,1439.21,3375.51,1435.21,3375.44,1431.1Z"/><rect class="cls-15" x="3410.23" y="1496.46" width="12" height="4.69" transform="translate(1745.02 4834.08) rotate(-87.07)"/><rect class="cls-15" x="3411.45" y="1472.49" width="12" height="4.69" transform="translate(1770.11 4812.56) rotate(-87.07)"/><rect class="cls-15" x="3412.67" y="1448.52" width="12" height="4.69" transform="translate(1795.21 4791.03) rotate(-87.07)"/><rect class="cls-15" x="3407.78" y="1544.4" width="12" height="4.69" transform="translate(1694.82 4877.12) rotate(-87.07)"/><rect class="cls-15" x="3409" y="1520.43" width="12" height="4.69" transform="translate(1719.92 4855.6) rotate(-87.07)"/><rect class="cls-15" x="3417.57" y="1352.65" width="12" height="4.69" transform="translate(1895.61 4704.94) rotate(-87.07)"/><rect class="cls-15" x="3418.8" y="1328.68" width="12" height="4.69" transform="translate(1920.71 4683.42) rotate(-87.07)"/><rect class="cls-15" x="3416.35" y="1376.62" width="12" height="4.69" transform="translate(1870.51 4726.47) rotate(-87.07)"/><rect class="cls-15" x="3415.12" y="1400.58" width="12" height="4.69" transform="translate(1845.41 4747.99) rotate(-87.07)"/><rect class="cls-15" x="3413.9" y="1424.55" width="12" height="4.69" transform="translate(1820.31 4769.51) rotate(-87.07)"/><path class="cls-15" d="M3506.31,1354.07c2,3.56,4.13,7.06,6.3,10.39l3.93-2.55c-2.11-3.26-4.18-6.67-6.15-10.15Z"/><path class="cls-15" d="M3647.57,1414.27l1.32,4.49c3.46-1,7-2.18,10.52-3.47l-1.61-4.41C3654.37,1412.14,3650.92,1413.28,3647.57,1414.27Z"/><path class="cls-15" d="M3535.64,1392.76c3,2.87,6.05,5.59,9.17,8.08l2.92-3.67c-3-2.39-6-5-8.84-7.78Z"/><path class="cls-15" d="M3487.22,1309.32c.05.18,1.24,4.59,3.83,11.67l4.4-1.61c-2.51-6.87-3.69-11.23-3.7-11.27Z"/><path class="cls-15" d="M3495.54,1332.29c1.6,3.73,3.31,7.44,5.09,11l4.2-2.08c-1.74-3.52-3.42-7.16-5-10.8Z"/><path class="cls-15" d="M3519.57,1374.44c2.47,3.3,5,6.49,7.66,9.48l3.53-3.09c-2.53-2.9-5-6-7.44-9.2Z"/><path class="cls-15" d="M3624.49,1419.05l.54,4.66c3.95-.46,8-1.12,12-2l-1-4.59C3632.21,1418,3628.3,1418.61,3624.49,1419.05Z"/><path class="cls-15" d="M3601.05,1419.33l-.46,4.66c3.51.35,7.12.53,10.73.53h1.5l-.06-4.69A105.22,105.22,0,0,1,3601.05,1419.33Z"/><path class="cls-15" d="M3576.71,1418.73a100.25,100.25,0,0,0,11.79,3.35l1-4.58a97.24,97.24,0,0,1-11.24-3.19Z"/><path class="cls-15" d="M3554.74,1408a108.67,108.67,0,0,0,10.67,6l2.07-4.21a102.53,102.53,0,0,1-10.21-5.76Z"/><polygon class="cls-27" points="3102.95 853.99 3113.7 867.16 3115.8 850.27 3117.44 836.97 3094.49 843.61 3102.95 853.99"/><polygon class="cls-28" points="3113.7 867.16 3115.8 850.27 3102.95 853.99 3113.7 867.16"/><path class="cls-18" d="M3646.8,1246.5c1.21-24.42-17.88-328.32-29.39-379.39a137.41,137.41,0,0,0-111.55-105.4c-50.48-8.37-102.58-8.4-122.31-7a338,338,0,0,0-132.12,37.11,78.62,78.62,0,0,0-41,55.87L3172,1062.27S3127,930.53,3092.63,929.56c-21.92-.61-52,42.89-46.69,90s-8.42,267.64,113.92,269.22c32.88.43,61.71-25.5,85.91-64.68a55.49,55.49,0,0,0-.69,6.73c-.83,25.15-10.95,65.81-13,87.38-3.64,38.15,156.82,49,156.82,49s265.72,79.74,270.62,61C3672.77,1377.46,3645.73,1267.77,3646.8,1246.5Z"/><path class="cls-17" d="M3211.16,1200.86c-6.49,26.29-20.91,67.2-26.69,83.22,34.41-13.74,63.55-56.23,86.6-109.15-9.63-51.41-23.72-106.84-29.2-116.86C3241.87,1058.07,3219.38,1167.59,3211.16,1200.86Z"/><path class="cls-15" d="M3444.79,764.92c-17.42-10.86-68.92-18.83-80.34-14.87-47.86,16.61-25.62,397.33-14,383.42S3466.6,778.53,3444.79,764.92Z"/><path class="cls-17" d="M3173.59,1072.13a2.82,2.82,0,0,0-1.63,3.63c.3.78,29.43,78.52,7.46,139.24a2.81,2.81,0,1,0,5.29,1.91c22.69-62.71-6.25-139.9-7.49-143.16A2.81,2.81,0,0,0,3173.59,1072.13Z"/><path class="cls-17" d="M3528.05,1218.8c-41.2,6-224.19-90.32-256-131.6,0,0,94.33,177.93,135.45,218.81s108,63.45,162.19,53.41,69.47-174.87,63.87-218.15S3569.25,1212.75,3528.05,1218.8Z"/><path class="cls-29" d="M3570.78,688.06c-1-1-2-1.87-3.06-2.74-5.19-4.25-9.94-9.46-10-16.47-.07-4.82,1.61-9.61,2.13-14.39,1.72-16.11-8.91-38.31-23.42-46.18-12.76-6.93-19.91-6.73-37.09-9.81-3.13-.56-26.73-63.71-37.42-67.29-.1-.15-.21-.27-.31-.41,7-4.51,14.91-9.5,19.26-17.56,11.05-20.47,13.72-53.56-7.41-70.27s-47.37-17.73-69.11,9.75a79.52,79.52,0,0,0-12.43,22.15,123.26,123.26,0,0,0-80.38-2.9l-42.28,12.69a35.43,35.43,0,0,0-14.47,8.47,42.49,42.49,0,0,0-30.82,11.58c-43.91,41.89-51.74,103.58-13,122.73,6.41-9.75,15.86-18.23,25.5-26.22-1.23,20.59,6.92,66.19,4.94,67.92-13.11,11.51-19.34,15-26.68,27.57-8.34,14.24-6,38.73,3.83,51.63,2.91,3.83,6.83,7.06,9.26,11.22,3.54,6.05,2.18,13-.08,19.29-.46,1.29-.86,2.6-1.21,3.93a34.76,34.76,0,0,0-.6,16.18c1.66,7.54,6.78,14.51,14.19,17.42s15.78,1.57,23.63-.06c.31-.06,1.17-.28,2.52-.66,11-3,55-15.54,104.92-30,21.53-6.26,56.79-14.87,77.24-20.32,26.66-7.11,51.62-13.82,70.81-19,21.37-5.8,35.58-9.72,37-10.23,7.57-2.67,15.47-5.9,20.26-12.16s5.62-14.94,3.15-22.25A34.63,34.63,0,0,0,3570.78,688.06Z"/><path d="M3471.12,644C3460,613.56,3433,535.68,3368.28,537.73s-114.75,118.44-104.5,164.93c7.7,34.87-33.32,54.55,2.48,113,11-3,55-15.54,104.92-30,21.53-6.26,56.79-14.87,77.24-20.32,26.66-7.11,51.62-13.82,70.81-19,3.84-3.9,6.48-7.87,7.67-11.89C3542,683.47,3482.24,674.35,3471.12,644Z"/><path class="cls-29" d="M3423.18,526.39h-.08a67.72,67.72,0,0,0-9.49-22.06,77.53,77.53,0,0,0-41.18-31.06c-24.44-7.66-52-3.07-73.82,10.29s-62.65,14.84-86.59,54c-11.64,19.07-10.21,45.2,0,65.06,2.82,5.48,6,10.87,9.24,16.18,1.78,2.94,3.59,5.85,5.36,8.74,9.13,14.86,59.82,33.18,73.22,44.35l13,10.49,51.33,41.27,17.89-35.34s91.9,14.31,97.32-90.67C3482.6,536.52,3425.43,526.81,3423.18,526.39Z"/><path class="cls-30" d="M3223.84,658.32c41.45,63.94,102.54,21.46,102.54,21.46l-44-127.39C3219,544.45,3186.09,600.1,3223.84,658.32Z"/><path class="cls-22" d="M3311.3,681.36,3323,723.31l22.74,78.33s11.82,7.17,51.2-5.22c32.7-10.28,47.88-31.5,47.88-31.5l-41.49-124.8Z"/><path class="cls-31" d="M3344.77,800.18c32.73-13.83,65.78-96.84,65.78-96.84L3333,757.68C3334.73,764.19,3342.39,792.79,3344.77,800.18Z"/><path class="cls-22" d="M3367.37,518.79l-87.57,19a62.22,62.22,0,0,0-47.6,73.93L3241,652,3256,721.38l1.28,6a19.61,19.61,0,0,0,11.57,13.89L3313.13,760a19.75,19.75,0,0,0,18.89-2l65-45.37a19.71,19.71,0,0,0,8-20.28Z"/><path class="cls-31" d="M3241,652,3256,721.38A37.63,37.63,0,0,0,3241,652Z"/><path class="cls-32" d="M3300.55,683.47l-25.84-2.88L3277,616a2.46,2.46,0,0,0-2.36-2.54,2.48,2.48,0,0,0-2.54,2.37l-2.42,66.88a2.46,2.46,0,0,0,2.18,2.53l28.11,3.14.27,0a2.46,2.46,0,0,0,.27-4.9Z"/><path class="cls-33" d="M3366.11,615.85c-30.3,0-54-7.85-70.74-23.45-28.23-26.35-26.35-66.34-26.33-66.74l-5-.28c-.1,1.73-2.07,42.66,27.86,70.64,17.67,16.51,42.56,24.83,74.2,24.83a215.76,215.76,0,0,0,26.46-1.74l-.62-5A208,208,0,0,1,3366.11,615.85Z"/><path class="cls-29" d="M3265.21,518.09l-.62,24.2c30.29,83,143.16,72.05,143.16,72.05L3389,496Z"/><circle class="cls-22" cx="3409.54" cy="644.4" r="36.1" transform="translate(79.95 1621.17) rotate(-27.05)"/><path class="cls-29" d="M3227.69,610.89c4.43,6.24,28.13-3.9,25.26-10.39C3248.17,589.72,3220.68,601,3227.69,610.89Z"/><path class="cls-29" d="M3311.45,586.76c-.36,7.09,25.4,8.09,27.3.68C3341.77,575.71,3312.06,575,3311.45,586.76Z"/><path class="cls-31" d="M3341.58,626.31a37.65,37.65,0,1,0,47.21,24.62A37.66,37.66,0,0,0,3341.58,626.31Z"/><path class="cls-29" d="M3317.2,626c-3.87.84-5.83,6.9-4.39,13.53s5.74,11.33,9.6,10.49,5.83-6.89,4.39-13.53S3321.06,625.11,3317.2,626Z"/><path class="cls-29" d="M3252.14,640.06c-3.86.84-5.83,6.9-4.39,13.53s5.74,11.33,9.6,10.5,5.83-6.9,4.39-13.53S3256,639.22,3252.14,640.06Z"/><path class="cls-34" d="M3406.61,591.33c-.67-.1-67.71-10.65-105-77.26a2.24,2.24,0,0,0-3.9,2.19A162.47,162.47,0,0,0,3366.31,582c22,11.08,38.94,13.67,39.65,13.77l.33,0a2.24,2.24,0,0,0,.32-4.45Z"/><path class="cls-35" d="M3363.44,539.13c18.63,11.27,47.67,14.86,47.67,14.86-13.75-57-88.42-56.89-88.42-56.89,26.22,7.41,43.43,27.26,43.43,27.26l-35.13.74c42.37,67.7,103.61,53,103.61,53C3391.47,575.54,3363.44,539.13,3363.44,539.13Z"/><path class="cls-31" d="M3413.85,622.37l-1.88-1a27.19,27.19,0,0,0,3.52,38.65l1.65-1.36c-3.2-5.85-5.67-11.63-6.12-17.7S3412,628.8,3413.85,622.37Z"/><path class="cls-36" d="M3326.86,697.59a24.61,24.61,0,0,0-8.14,2.26A67.11,67.11,0,0,1,3293.4,705a31.64,31.64,0,0,0-4.78.32,8.34,8.34,0,0,0-2.37,1c-3.07,2.09-2.88,6.18-1.59,9.2,2.24,5.27,7,9.47,12.84,11.83a27.83,27.83,0,0,0,11.74,1.9c9.26-.51,18.28-5.75,23-13a21.41,21.41,0,0,0,1.84-3.43c1.78-4.39,2-9.55-1-13.08C3331.52,698,3329.38,697.44,3326.86,697.59Z"/><path class="cls-15" d="M3318.72,699.85A67.11,67.11,0,0,1,3293.4,705a31.64,31.64,0,0,0-4.78.32c.12,2,.56,4,2.05,5.31s3.63,1.53,5.61,1.62a56.46,56.46,0,0,0,24.33-4.55c2.12-.86,4.26-2,5.46-4a9,9,0,0,0,.79-6.17A24.61,24.61,0,0,0,3318.72,699.85Z"/><path class="cls-31" d="M3309.79,717.31c-5.06,1.94-10,5.36-12.29,10.05a27.83,27.83,0,0,0,11.74,1.9c9.26-.51,18.28-5.75,23-13A33.58,33.58,0,0,0,3309.79,717.31Z"/><path class="cls-17" d="M3462.43,1063.72c-12.17,2.63-48-10.54-48-10.54l75.29,80.37,17.53-287C3478.3,896.32,3474.61,1061.08,3462.43,1063.72Z"/><polygon class="cls-8" points="2963.17 823.08 3128.05 1092.17 3341.69 1084.8 3176.81 815.71 2963.17 823.08"/><polygon class="cls-37" points="3176.81 815.71 3341.69 1084.8 3353.03 1074.93 3185.9 808.38 3176.81 815.71"/><polygon class="cls-37" points="2963.17 823.08 3176.81 815.71 3185.9 808.38 2973.77 815.55 2963.17 823.08"/><path class="cls-22" d="M3327.78,1005.17c4.13-16.92-15.63-38.69-23.9-50.48-13.63-19.42-27.65-33.28-33.23-30-10.59,6.31,13.52,36.36,7.65,44.33a3.61,3.61,0,0,1-.83.47,69,69,0,0,1-13.58-6.8c-20.08-13.21-69.74-43.68-75.83-37.84-7.45,7.13,49.85,45.12,47.5,48.72s-59.06-49.46-69.2-39.75c-5.78,5.54,54.41,51.06,53.88,55.11s-51.74-38.38-56.14-32c-7.95,11.49,54.17,47.74,53,51.51s-34.65-20.19-41-13.46,45.74,40.68,57.32,47.5,34,14.07,60.82,18.8c19.19,3.38,56.2-37.67,51.92-44.62C3343.48,1013.89,3330.47,1007.23,3327.78,1005.17Z"/><path class="cls-18" d="M3509.39,812l-19.64,321.59L3344.91,978.6l-83.34,85.45s178.21,286.13,297.71,258.37,67.84-398,32.32-448.85S3509.39,812,3509.39,812Z"/><path class="cls-15" d="M1065.1,910.88c-63.06,0-111,51.12-107.13,114.17s58.17,114.18,121.22,114.18a108.45,108.45,0,0,0,56.54-15.55l-64.12-98.35,112.49-16.81C1172.68,953.3,1122.54,910.88,1065.1,910.88Z"/><path class="cls-12" d="M990.85,1041.06c10.12,41.66,48.5,73.26,92.33,73.26a84.76,84.76,0,0,0,44.2-12.16l-50.13-76.89Z"/><path class="cls-21" d="M1142.94,903.08l-65.69,122.19,139.67-20.87C1208,961.32,1180.12,924.53,1142.94,903.08Z"/><path class="cls-20" d="M935.63,1025.05c3.56,57.7,41,107.32,91.81,129.56l49.81-129.34-118.5-85.41C942.4,963.59,933.66,993.09,935.63,1025.05Z"/><path class="cls-12" d="M1255.76,1021.34l-139.67,20.87,80,122.18c40.35-24.7,65.65-70.26,62.43-122.4A147,147,0,0,0,1255.76,1021.34Z"/><path class="cls-8" d="M1165.55,915.79c-27.65-22.75-62-35.28-96.8-35.28-79.7,0-140.54,64.84-135.62,144.54s73.76,144.54,153.46,144.54a137.8,137.8,0,0,0,72.45-20.17,2.42,2.42,0,0,0,.67-3.42,2.6,2.6,0,0,0-3.48-.88,133.1,133.1,0,0,1-70,19.48c-76.94,0-143.41-62.6-148.15-139.55s54-139.54,130.93-139.54c68.37,0,130.81,50.89,145.25,118.37a2.69,2.69,0,0,0,3,2.09,2.33,2.33,0,0,0,1.91-2.84C1212,969.32,1192.92,938.3,1165.55,915.79Z"/><polygon class="cls-20" points="876.49 946.65 878.37 977.05 908.77 977.05 906.9 946.65 876.49 946.65"/><polygon class="cls-15" points="762.88 946.65 764.26 977.05 857.91 977.05 856.53 946.65 762.88 946.65"/><polygon class="cls-12" points="879.36 1016.37 881.23 1046.77 911.64 1046.77 909.76 1016.37 879.36 1016.37"/><polygon class="cls-15" points="765.11 1016.37 766.5 1046.77 860.02 1046.77 858.64 1016.37 765.11 1016.37"/></g></svg>