<?xml version="1.0" encoding="utf-8"?>
<!-- Generator: Adobe Illustrator 25.1.0, SVG Export Plug-In . SVG Version: 6.00 Build 0)  -->
<svg version="1.1" id="Layer_1" xmlns="http://www.w3.org/2000/svg" xmlns:xlink="http://www.w3.org/1999/xlink" x="0px" y="0px"
	 viewBox="0 0 1160 772" style="enable-background:new 0 0 1160 772;" xml:space="preserve">
<style type="text/css">
	.st0{fill:#FFFFFF;}
	.st1{fill:#79D6BB;}
	.st2{opacity:0.1;}
	.st3{fill:#009B97;}
	.st4{fill:#F0E6FE;}
	.st5{fill:#D5B3FF;}
	.st6{fill:#C699FF;}
	.st7{opacity:0.7;}
	.st8{fill:#FFE9B8;}
	.st9{fill:#FFD984;}
	.st10{fill:#FEC343;}
	.st11{opacity:0.5;}
	.st12{fill:#FCCB68;}
	.st13{fill:#FDFDFD;}
	.st14{fill:#905BF3;}
	.st15{fill:#6E4CC1;}
	.st16{fill:#4C166E;}
	.st17{fill:#EA9C92;}
	.st18{fill:#FDC6BF;}
	.st19{opacity:0.4;}
	.st20{fill:#DC7D68;}
	.st21{fill:#FF895D;}
	.st22{fill:#A4154B;}
	.st23{fill:#A88DF7;}
	.st24{clip-path:url(#SVGID_4_);}
	.st25{opacity:0.5;clip-path:url(#SVGID_6_);}
	.st26{fill:#EF8984;}
	.st27{fill:#4F0000;}
	.st28{fill:#007F79;}
	.st29{fill:#FDFEFD;}
	.st30{clip-path:url(#SVGID_10_);}
	.st31{fill:#F76F3F;}
	.st32{opacity:0.8;}
	.st33{fill:#640002;}
	.st34{opacity:0.5;clip-path:url(#SVGID_16_);}
	.st35{opacity:0.5;clip-path:url(#SVGID_18_);}
	.st36{fill:#B5B8EB;}
	.st37{fill:#A3A9E8;}
	.st38{opacity:0.6;}
	.st39{fill:#6B32D7;}
	.st40{fill:#55258B;}
	.st41{opacity:0.2;}
	.st42{fill:#16A7A2;}
	.st43{fill:#D385FC;}
	.st44{fill:#BB50EC;}
	.st45{fill:#FCB017;}
	.st46{fill:#FFA196;}
</style>
<g>
	<rect class="st0" width="1160" height="772"/>
</g>
<g>
	<g>
		<g>
			<path class="st1" d="M469.25,698.43c0.95-10.43-3.39-21.21-11.27-28.02c-7.88-6.81-19.1-9.47-29.16-6.92
				c0.73-9.54-5.49-19.19-14.43-22.38c-8.94-3.18-19.78,0.39-25.14,8.28c2.43-6.8-0.33-14.81-5.71-19.58
				c-5.38-4.77-12.91-6.55-20.05-5.99c-8.46,0.67-16.79,4.62-22,11.38c-5.21,6.76-6.91,16.37-3.51,24.22
				c-5.47-9.66-17.63-14.9-28.32-12.19c-10.69,2.71-18.97,13.12-19.28,24.24c-0.27,9.85,5.32,19.32,11.51,26.93L469.25,698.43z"/>
		</g>
		<g class="st2">
			<g>
				<path class="st3" d="M457.98,670.41c-7.88-6.81-19.1-9.47-29.16-6.92c0,0,0,0-0.01-0.01c0.04-0.58,0.07-1.17,0.06-1.75
					c-0.01-0.47-0.04-0.94-0.08-1.41c-0.01-0.11-0.01-0.22-0.02-0.33c-0.05-0.56-0.13-1.12-0.23-1.67c0-0.02,0-0.04-0.01-0.06
					c-0.09-0.53-0.21-1.05-0.35-1.57c-0.01-0.05-0.02-0.09-0.03-0.14c0,0,0,0,0,0c-1.83-6.95-7.03-13.04-13.78-15.44
					c-8.94-3.18-19.78,0.39-25.14,8.28c2.43-6.8-0.33-14.81-5.71-19.58c-5.38-4.77-12.91-6.55-20.05-5.99
					c-8.46,0.67-16.79,4.62-22,11.38c-2.39,3.09-4.02,6.79-4.78,10.64c4.54-3.71,10.16-6.07,16.45-6.76
					c5.24-0.58,10.62,0.11,15.51,2.09c6,2.42,9.81,6.56,14.38,10.94c2.7,2.59,4.82,2.89,8.42,3.21c4.05,0.35,7.77,1.15,11.5,2.79
					c4.19,1.85,10.21,2.91,15.5,4.5c4.4,1.33,7.29,5.63,6.76,10.19c-1.06,9.15,1.81,23.69,14.45,25.55l3.82,0.03c0,0,0,0,0,0
					l25.77,0.06c0.06-0.65,0.1-1.31,0.12-1.96C469.64,686.67,465.37,676.79,457.98,670.41z"/>
			</g>
		</g>
		<g>
			<path class="st1" d="M448.48,652.67c-8.85,3.21-15.5,12.01-16.16,21.47c-0.73,10.46,3.45,19.7,12.89,24.26h105.47
				c4.74-5.23,6.56-12.95,4.66-19.74c-1.9-6.8-7.47-12.45-14.23-14.45c-6.77-2.01-14.51-0.3-19.81,4.36
				c0.86-7.21-3.09-14.64-9.3-18.41c-6.21-3.77-14.32-3.94-20.92-0.91c-6.6,3.03-11.65,9.05-14.01,15.92
				c-3.96-9.7-15.46-15.51-25.72-13.32C450.36,652.06,449.41,652.33,448.48,652.67z"/>
		</g>
	</g>
	<g>
		<g>
			<path class="st4" d="M1084.67,331.3H737.52c-6.6,0-12-5.4-12-12V100.2c0-6.6,5.4-12,12-12h347.15c6.6,0,12,5.4,12,12v219.1
				C1096.67,325.9,1091.27,331.3,1084.67,331.3z"/>
		</g>
		<g>
			<path class="st5" d="M1096.67,127.87H725.52V100.2c0-6.6,5.4-12,12-12h347.15c6.6,0,12,5.4,12,12V127.87z"/>
		</g>
		<g>
			<path class="st6" d="M1038.77,108.04c0,3.41-2.76,6.17-6.17,6.17s-6.17-2.76-6.17-6.17c0-3.41,2.76-6.17,6.17-6.17
				S1038.77,104.63,1038.77,108.04z"/>
		</g>
		<g>
			<path class="st6" d="M1059.87,108.04c0,3.41-2.76,6.17-6.17,6.17c-3.41,0-6.17-2.76-6.17-6.17c0-3.41,2.76-6.17,6.17-6.17
				C1057.11,101.87,1059.87,104.63,1059.87,108.04z"/>
		</g>
		<g>
			<path class="st6" d="M1080.47,108.04c0,3.41-2.76,6.17-6.17,6.17s-6.17-2.76-6.17-6.17c0-3.41,2.76-6.17,6.17-6.17
				S1080.47,104.63,1080.47,108.04z"/>
		</g>
		<g>
			<g class="st7">
				<path class="st6" d="M725.35,138.11h63.8c3.87,0,7-3.13,7-7V88.3h-70.8V138.11z"/>
			</g>
			<g>
				<path class="st8" d="M783.39,131.97h-92.1c-3.43,0-6.24-2.03-6.24-4.52V75.69c0-2.49,2.81-4.52,6.24-4.52h92.1
					c3.43,0,6.24,2.03,6.24,4.52v51.76C789.63,129.93,786.82,131.97,783.39,131.97z"/>
			</g>
			<g>
				<path class="st9" d="M789.63,84.31H685.05v-7.67c0-3.01,2.81-5.46,6.24-5.46h92.1c3.43,0,6.24,2.46,6.24,5.46V84.31z"/>
			</g>
			<g>
				<path class="st10" d="M696.62,77.74c0,1.43-1.16,2.59-2.59,2.59c-1.43,0-2.59-1.16-2.59-2.59c0-1.43,1.16-2.59,2.59-2.59
					C695.46,75.15,696.62,76.31,696.62,77.74z"/>
			</g>
			<g>
				<circle class="st10" cx="702.06" cy="77.74" r="2.59"/>
			</g>
			<g>
				<path class="st10" d="M712.78,77.74c0,1.43-1.16,2.59-2.59,2.59c-1.43,0-2.59-1.16-2.59-2.59c0-1.43,1.16-2.59,2.59-2.59
					C711.62,75.15,712.78,76.31,712.78,77.74z"/>
			</g>
			<g>
				<g>
					<path class="st10" d="M706.65,110.14c0.45,2,1.89,2.88,4.2,2.88c2.3,0,3.28-0.91,3.28-2.37c0-1.62-0.96-2.33-4.37-3.12
						c-5.42-1.27-6.76-3.25-6.76-5.94c0-3.47,2.6-5.83,7.32-5.83c5.29,0,7.4,2.84,7.68,5.76h-4.34c-0.21-1.23-0.89-2.56-3.46-2.56
						c-1.75,0-2.81,0.72-2.81,2.14c0,1.39,0.85,1.95,4.07,2.69c5.79,1.37,7.07,3.52,7.07,6.33c0,3.64-2.75,6.14-8.02,6.14
						c-5.06,0-7.72-2.49-8.2-6.12H706.65z"/>
				</g>
				<g>
					<path class="st10" d="M735.43,107.39h-9.53v5.06h10.51l-0.51,3.53h-14.18V96.06h14.13v3.53h-9.95v4.27h9.53V107.39z"/>
				</g>
				<g>
					<path class="st10" d="M739.51,96.06h4.31v16.4h9.93l-0.49,3.53h-13.74V96.06z"/>
				</g>
				<g>
					<path class="st10" d="M756.31,96.06h4.31v16.4h9.93l-0.49,3.53h-13.74V96.06z"/>
				</g>
			</g>
		</g>
		<g>
			<g>
				<path class="st0" d="M866.1,210.95H755.17c-3.53,0-6.42-2.89-6.42-6.42v-34.01c0-3.53,2.89-6.42,6.42-6.42H866.1
					c3.53,0,6.42,2.89,6.42,6.42v34.01C872.52,208.06,869.63,210.95,866.1,210.95z"/>
			</g>
			<g class="st11">
				<path class="st5" d="M830.53,186.78c-9.49,4.08-20.34,3.13-30.5,1.25c-10.16-1.88-20.34-4.62-30.64-3.88
					c-7.58,0.54-15.41,3.46-20.64,8.74v11.87c0,3.4,2.78,6.18,6.18,6.18h111.41c3.4,0,6.18-2.78,6.18-6.18v-34.49
					c0-2.94-2.08-5.41-4.84-6.03c-4.42,1.02-8.69,2.73-12.57,5.09C846.5,174.57,839.79,182.8,830.53,186.78z"/>
			</g>
			<g>
				<polygon class="st6" points="888.18,204.19 875.46,188.97 862.74,204.19 871.35,204.19 871.35,224.71 879.57,224.71 
					879.57,204.19 				"/>
			</g>
		</g>
		<g>
			<g>
				<path class="st0" d="M1051.89,210.95H940.97c-3.53,0-6.42-2.89-6.42-6.42v-34.01c0-3.53,2.89-6.42,6.42-6.42h110.93
					c3.53,0,6.42,2.89,6.42,6.42v34.01C1058.32,208.06,1055.43,210.95,1051.89,210.95z"/>
			</g>
			<g class="st11">
				<path class="st5" d="M1058.32,204.76v-29.53c-22.83-2.26-44.77,11.02-67.82,11.94c-10.54,0.42-21.11-1.77-31.6-0.64
					c-8.78,0.95-17.23,4.35-24.35,9.57v8.66c0,3.4,2.78,6.18,6.18,6.18h111.41C1055.53,210.95,1058.32,208.16,1058.32,204.76z"/>
			</g>
			<g>
				<polygon class="st6" points="1073.44,204.19 1060.72,188.97 1048,204.19 1056.61,204.19 1056.61,224.71 1064.83,224.71 
					1064.83,204.19 				"/>
			</g>
		</g>
		<g>
			<g>
				<path class="st0" d="M867.04,299.25H756.11c-3.53,0-6.42-2.89-6.42-6.42v-34.01c0-3.53,2.89-6.42,6.42-6.42h110.93
					c3.53,0,6.42,2.89,6.42,6.42v34.01C873.46,296.36,870.57,299.25,867.04,299.25z"/>
			</g>
			<g class="st11">
				<path class="st5" d="M859.54,280.75c-12.03-1.44-24.38,0.51-36.23-2.01c-8.96-1.9-17.17-6.27-25.75-9.49
					c-15.2-5.7-31.74-7.74-47.87-5.99v29.81c0,3.4,2.78,6.18,6.18,6.18h111.41c3.4,0,6.18-2.78,6.18-6.18v-8.31
					C869.21,282.52,864.35,281.32,859.54,280.75z"/>
			</g>
			<g>
				<polygon class="st6" points="889.12,293.06 876.4,308.27 863.68,293.06 872.29,293.06 872.29,272.53 880.51,272.53 
					880.51,293.06 				"/>
			</g>
		</g>
		<g>
			<g>
				<path class="st0" d="M1052.83,299.25H941.91c-3.53,0-6.42-2.89-6.42-6.42v-34.01c0-3.53,2.89-6.42,6.42-6.42h110.93
					c3.53,0,6.42,2.89,6.42,6.42v34.01C1059.26,296.36,1056.37,299.25,1052.83,299.25z"/>
			</g>
			<g class="st11">
				<path class="st5" d="M1054.43,283.82c-14.94-6.48-31.44-11.74-47.32-8.13c-4.89,1.11-9.58,3.04-14.52,3.84
					c-4.2,0.68-8.53,0.52-12.66-0.45c-9.18-2.17-16.9-8.17-25.15-12.74c-5.89-3.26-12.72-5.8-19.28-5.61v32.34
					c0,3.4,2.78,6.18,6.18,6.18h111.41c3.4,0,6.18-2.78,6.18-6.18v-7.04C1057.66,285.25,1056.04,284.52,1054.43,283.82z"/>
			</g>
			<g>
				<polygon class="st6" points="1074.38,293.06 1061.66,308.27 1048.94,293.06 1057.55,293.06 1057.55,272.53 1065.77,272.53 
					1065.77,293.06 				"/>
			</g>
		</g>
		<g>
			<g>
				<path class="st5" d="M855.78,150.76h-90.3c-0.94,0-1.71-0.77-1.71-1.71v-0.03c0-0.94,0.77-1.71,1.71-1.71h90.3
					c0.94,0,1.71,0.77,1.71,1.71v0.03C857.49,149.99,856.72,150.76,855.78,150.76z"/>
			</g>
			<g>
				<path class="st0" d="M863.39,156.57H757.88c-0.6,0-1.1-0.49-1.1-1.1v-0.02c0-0.6,0.49-1.1,1.1-1.1h105.51
					c0.6,0,1.1,0.49,1.1,1.1v0.02C864.49,156.08,863.99,156.57,863.39,156.57z"/>
			</g>
		</g>
		<g>
			<g>
				<path class="st5" d="M1041.58,150.76h-90.3c-0.94,0-1.71-0.77-1.71-1.71v-0.03c0-0.94,0.77-1.71,1.71-1.71h90.3
					c0.94,0,1.71,0.77,1.71,1.71v0.03C1043.29,149.99,1042.52,150.76,1041.58,150.76z"/>
			</g>
			<g>
				<path class="st0" d="M1049.19,156.57H943.68c-0.6,0-1.1-0.49-1.1-1.1v-0.02c0-0.6,0.49-1.1,1.1-1.1h105.51
					c0.6,0,1.1,0.49,1.1,1.1v0.02C1050.28,156.08,1049.79,156.57,1049.19,156.57z"/>
			</g>
		</g>
		<g>
			<g>
				<path class="st5" d="M855.78,239.13h-90.3c-0.94,0-1.71-0.77-1.71-1.71v-0.03c0-0.94,0.77-1.71,1.71-1.71h90.3
					c0.94,0,1.71,0.77,1.71,1.71v0.03C857.49,238.36,856.72,239.13,855.78,239.13z"/>
			</g>
			<g>
				<path class="st0" d="M863.39,244.94H757.88c-0.6,0-1.1-0.49-1.1-1.1v-0.02c0-0.6,0.49-1.1,1.1-1.1h105.51
					c0.6,0,1.1,0.49,1.1,1.1v0.02C864.49,244.45,863.99,244.94,863.39,244.94z"/>
			</g>
		</g>
		<g>
			<g>
				<path class="st5" d="M1041.58,239.13h-90.3c-0.94,0-1.71-0.77-1.71-1.71v-0.03c0-0.94,0.77-1.71,1.71-1.71h90.3
					c0.94,0,1.71,0.77,1.71,1.71v0.03C1043.29,238.36,1042.52,239.13,1041.58,239.13z"/>
			</g>
			<g>
				<path class="st0" d="M1049.19,244.94H943.68c-0.6,0-1.1-0.49-1.1-1.1v-0.02c0-0.6,0.49-1.1,1.1-1.1h105.51
					c0.6,0,1.1,0.49,1.1,1.1v0.02C1050.28,244.45,1049.79,244.94,1049.19,244.94z"/>
			</g>
		</g>
	</g>
	<g>
		<g>
			<g>
				<path class="st8" d="M75.33,217.79h215.02c6.6,0,12-5.4,12-12V73c0-6.6-5.4-12-12-12H75.33c-6.6,0-12,5.4-12,12v132.79
					C63.33,212.39,68.73,217.79,75.33,217.79z"/>
			</g>
			<g>
				<path class="st10" d="M97.29,99.49H82.21c-0.84,0-1.53-0.69-1.53-1.53v-0.99c0-0.84,0.69-1.53,1.53-1.53h15.08
					c0.84,0,1.53,0.69,1.53,1.53v0.99C98.82,98.8,98.13,99.49,97.29,99.49z"/>
			</g>
			<g>
				<path class="st10" d="M97.29,117.35H82.21c-0.84,0-1.53-0.69-1.53-1.53v-0.99c0-0.84,0.69-1.53,1.53-1.53h15.08
					c0.84,0,1.53,0.69,1.53,1.53v0.99C98.82,116.66,98.13,117.35,97.29,117.35z"/>
			</g>
			<g>
				<path class="st10" d="M97.29,137.05H82.21c-0.84,0-1.53-0.69-1.53-1.53v-0.99c0-0.84,0.69-1.53,1.53-1.53h15.08
					c0.84,0,1.53,0.69,1.53,1.53v0.99C98.82,136.36,98.13,137.05,97.29,137.05z"/>
			</g>
			<g>
				<path class="st10" d="M97.29,154.91H82.21c-0.84,0-1.53-0.69-1.53-1.53v-0.99c0-0.84,0.69-1.53,1.53-1.53h15.08
					c0.84,0,1.53,0.69,1.53,1.53v0.99C98.82,154.23,98.13,154.91,97.29,154.91z"/>
			</g>
			<g>
				<path class="st10" d="M97.29,174.62H82.21c-0.84,0-1.53-0.69-1.53-1.53v-0.99c0-0.84,0.69-1.53,1.53-1.53h15.08
					c0.84,0,1.53,0.69,1.53,1.53v0.99C98.82,173.93,98.13,174.62,97.29,174.62z"/>
			</g>
			<g>
				<rect x="118.65" y="86.23" class="st1" width="5.92" height="106.34"/>
			</g>
			<g>
				<rect x="130.98" y="103.49" class="st1" width="5.92" height="89.08"/>
			</g>
			<g>
				<rect x="144.13" y="124.28" class="st1" width="5.92" height="68.29"/>
			</g>
			<g>
				<rect x="186.13" y="98.72" class="st1" width="5.92" height="93.85"/>
			</g>
			<g>
				<rect x="197.91" y="120.09" class="st1" width="5.92" height="72.48"/>
			</g>
			<g>
				<rect x="209.85" y="90.83" class="st1" width="5.92" height="101.74"/>
			</g>
			<g>
				<rect x="252.67" y="133.48" class="st1" width="5.92" height="59.09"/>
			</g>
			<g>
				<rect x="264.83" y="103.49" class="st1" width="5.92" height="89.08"/>
			</g>
			<g>
				<rect x="277.16" y="86.23" class="st1" width="5.92" height="106.34"/>
			</g>
			<g>
				<path class="st3" d="M287.08,193.57H80.68c-0.55,0-1-0.45-1-1c0-0.55,0.45-1,1-1h206.4c0.55,0,1,0.45,1,1
					C288.08,193.12,287.63,193.57,287.08,193.57z"/>
			</g>
			<g>
				<g>
					<path class="st3" d="M113.33,164.6c5.06-13.32,17.37-24.46,32.03-25.16c7.14-0.34,14.37,1.72,20.22,5.84
						c3.07,2.17,5.66,4.9,7.76,8.01c2.3,3.41,4.14,7.11,6.48,10.5c4.26,6.17,10.63,10.58,18.05,11.94
						c7.06,1.28,14.3-0.47,20.12-4.64c2.85-2.04,5.32-4.59,7.24-7.53c2.2-3.36,3.55-7.17,4.68-11c1.21-4.08,2.22-8.24,3.9-12.17
						c1.45-3.39,3.31-6.6,5.5-9.56c4.43-5.97,10.31-10.89,17.06-14.02c7.66-3.56,16.4-4.8,24.75-3.51c1.97,0.3,3.92,0.75,5.84,1.32
						c0.62,0.18,0.88-0.78,0.27-0.96c-7.94-2.37-16.49-2.44-24.48-0.24c-7.4,2.04-14.14,6.05-19.57,11.45
						c-5.31,5.28-9.3,11.77-11.68,18.86c-1.38,4.09-2.31,8.31-3.76,12.37c-1.36,3.83-3.27,7.39-6.03,10.39
						c-4.99,5.42-12.14,8.81-19.56,8.67c-7.79-0.15-15.28-3.97-20.11-10.05c-2.66-3.35-4.58-7.2-6.84-10.81
						c-2.03-3.22-4.39-6.16-7.36-8.57c-5.42-4.38-12.21-6.9-19.15-7.28c-14.52-0.79-27.6,8.57-34.16,21.11
						c-0.81,1.55-1.52,3.14-2.14,4.78C112.14,164.94,113.1,165.2,113.33,164.6L113.33,164.6z"/>
				</g>
			</g>
		</g>
		<g>
			<g>
				<path class="st12" d="M302.35,217.79H192.05V190.5c0-6.6,5.4-12,12-12h98.31V217.79z"/>
			</g>
			<g>
				<path class="st9" d="M212.74,341.39h215.02c6.6,0,12-5.4,12-12V196.6c0-6.6-5.4-12-12-12H212.74c-6.6,0-12,5.4-12,12v132.79
					C200.74,335.99,206.14,341.39,212.74,341.39z"/>
			</g>
			<g>
				<path class="st8" d="M427.76,184.6H212.74c-6.6,0-12,5.4-12,12v13.76h239.02V196.6C439.76,190,434.36,184.6,427.76,184.6z"/>
			</g>
			<g>
				<g>
					<path class="st13" d="M304.44,258.72c-0.31,0-0.57,0.25-0.57,0.56v38.14c0,0.31,0.25,0.56,0.57,0.56
						c0.31,0,0.57-0.25,0.57-0.56v-38.14C305.01,258.97,304.75,258.72,304.44,258.72z"/>
				</g>
				<g>
					<path class="st13" d="M320.3,253.56c-0.31,0-0.57,0.25-0.57,0.56v73.07c0,0.31,0.25,0.56,0.57,0.56c0.31,0,0.57-0.25,0.57-0.56
						v-73.07C320.87,253.81,320.62,253.56,320.3,253.56z"/>
				</g>
				<g>
					<path class="st13" d="M336.17,236.08c-0.31,0-0.57,0.25-0.57,0.56v73.07c0,0.31,0.25,0.56,0.57,0.56
						c0.31,0,0.57-0.25,0.57-0.56v-73.07C336.74,236.33,336.49,236.08,336.17,236.08z"/>
				</g>
				<g>
					<path class="st13" d="M399.64,225.75c-0.31,0-0.57,0.25-0.57,0.56v89.47c0,0.31,0.25,0.56,0.57,0.56
						c0.31,0,0.57-0.25,0.57-0.56v-89.47C400.21,226,399.96,225.75,399.64,225.75z"/>
				</g>
				<g>
					<path class="st13" d="M352.04,222c-0.31,0-0.57,0.25-0.57,0.56v61.21c0,0.31,0.25,0.56,0.57,0.56c0.31,0,0.57-0.25,0.57-0.56
						v-61.21C352.61,222.25,352.36,222,352.04,222z"/>
				</g>
				<g>
					<path class="st13" d="M367.91,239.1c-0.31,0-0.57,0.25-0.57,0.56v42.09c0,0.31,0.25,0.56,0.57,0.56c0.31,0,0.57-0.25,0.57-0.56
						v-42.09C368.48,239.35,368.22,239.1,367.91,239.1z"/>
				</g>
				<g>
					<path class="st10" d="M308.27,264.2h-7.67c-0.53,0-0.96,0.43-0.96,0.96v26.38c0,0.53,0.43,0.96,0.96,0.96h7.67
						c0.53,0,0.96-0.43,0.96-0.96v-26.38C309.23,264.63,308.8,264.2,308.27,264.2z"/>
				</g>
				<g>
					<path class="st8" d="M324.14,258.68h-7.67c-0.53,0-0.96,0.43-0.96,0.96v59.28c0,0.53,0.43,0.96,0.96,0.96h7.67
						c0.53,0,0.96-0.43,0.96-0.96v-59.28C325.1,259.11,324.67,258.68,324.14,258.68z"/>
				</g>
				<g>
					<path class="st10" d="M340.01,242.57h-7.67c-0.53,0-0.96,0.43-0.96,0.96v59.28c0,0.53,0.43,0.96,0.96,0.96h7.67
						c0.53,0,0.96-0.43,0.96-0.96v-59.28C340.97,243,340.54,242.57,340.01,242.57z"/>
				</g>
				<g>
					<path class="st8" d="M355.88,230.87h-7.67c-0.53,0-0.96,0.43-0.96,0.96v42.65c0,0.53,0.43,0.96,0.96,0.96h7.67
						c0.53,0,0.96-0.43,0.96-0.96v-42.65C356.84,231.3,356.41,230.87,355.88,230.87z"/>
				</g>
				<g>
					<path class="st10" d="M371.74,246.11h-7.67c-0.53,0-0.96,0.43-0.96,0.96v27.26c0,0.53,0.43,0.96,0.96,0.96h7.67
						c0.53,0,0.96-0.43,0.96-0.96v-27.26C372.71,246.54,372.27,246.11,371.74,246.11z"/>
				</g>
				<g>
					<path class="st10" d="M403.48,233.41h-7.67c-0.53,0-0.96,0.43-0.96,0.96v73.35c0,0.53,0.43,0.96,0.96,0.96h7.67
						c0.53,0,0.96-0.43,0.96-0.96v-73.35C404.44,233.84,404.01,233.41,403.48,233.41z"/>
				</g>
				<g>
					<path class="st13" d="M240.37,224.15c-0.31,0-0.57,0.25-0.57,0.56v73.07c0,0.31,0.25,0.56,0.57,0.56
						c0.31,0,0.57-0.25,0.57-0.56v-73.07C240.94,224.41,240.68,224.15,240.37,224.15z"/>
				</g>
				<g>
					<path class="st13" d="M256.23,251.67c-0.31,0-0.57,0.25-0.57,0.56v61.21c0,0.31,0.25,0.56,0.57,0.56
						c0.31,0,0.57-0.25,0.57-0.56v-61.21C256.8,251.92,256.55,251.67,256.23,251.67z"/>
				</g>
				<g>
					<path class="st13" d="M272.1,240.02c-0.31,0-0.57,0.25-0.57,0.56v61.21c0,0.31,0.25,0.56,0.57,0.56c0.31,0,0.57-0.25,0.57-0.56
						v-61.21C272.67,240.27,272.42,240.02,272.1,240.02z"/>
				</g>
				<g>
					<path class="st13" d="M287.97,232.61c-0.31,0-0.57,0.25-0.57,0.56v42.09c0,0.31,0.25,0.56,0.57,0.56
						c0.31,0,0.57-0.25,0.57-0.56v-42.09C288.54,232.86,288.28,232.61,287.97,232.61z"/>
				</g>
				<g>
					<path class="st10" d="M244.2,230.07h-7.67c-0.53,0-0.96,0.43-0.96,0.96v60.43c0,0.53,0.43,0.96,0.96,0.96h7.67
						c0.53,0,0.96-0.43,0.96-0.96v-60.43C245.16,230.5,244.73,230.07,244.2,230.07z"/>
				</g>
				<g>
					<path class="st8" d="M260.07,257.99h-7.67c-0.53,0-0.96,0.43-0.96,0.96v47.75c0,0.53,0.43,0.96,0.96,0.96h7.67
						c0.53,0,0.96-0.43,0.96-0.96v-47.75C261.03,258.43,260.6,257.99,260.07,257.99z"/>
				</g>
				<g>
					<path class="st10" d="M275.94,246.35h-7.67c-0.53,0-0.96,0.43-0.96,0.96v47.75c0,0.53,0.43,0.96,0.96,0.96h7.67
						c0.53,0,0.96-0.43,0.96-0.96v-47.75C276.9,246.78,276.47,246.35,275.94,246.35z"/>
				</g>
				<g>
					<path class="st8" d="M291.8,237.24h-7.67c-0.53,0-0.96,0.43-0.96,0.96v32.03c0,0.53,0.43,0.96,0.96,0.96h7.67
						c0.53,0,0.96-0.43,0.96-0.96V238.2C292.77,237.67,292.34,237.24,291.8,237.24z"/>
				</g>
				<g>
					<g>
						<path class="st13" d="M383.78,247.19c-0.31,0-0.57,0.25-0.57,0.56v61.21c0,0.31,0.25,0.56,0.57,0.56
							c0.31,0,0.57-0.25,0.57-0.56v-61.21C384.35,247.44,384.09,247.19,383.78,247.19z"/>
					</g>
					<g>
						<path class="st8" d="M387.61,254.41h-7.67c-0.53,0-0.96,0.43-0.96,0.96v47.75c0,0.53,0.43,0.96,0.96,0.96h7.67
							c0.53,0,0.96-0.43,0.96-0.96v-47.75C388.57,254.84,388.14,254.41,387.61,254.41z"/>
					</g>
				</g>
			</g>
			<g>
				<circle class="st10" cx="215.8" cy="197.48" r="3.27"/>
			</g>
			<g>
				<path class="st10" d="M231.43,197.48c0,1.8-1.46,3.27-3.27,3.27c-1.8,0-3.27-1.46-3.27-3.27s1.46-3.27,3.27-3.27
					C229.97,194.21,231.43,195.67,231.43,197.48z"/>
			</g>
			<g>
				<circle class="st10" cx="240.01" cy="197.48" r="3.27"/>
			</g>
			<g>
				<g>
					<path class="st10" d="M423.66,331.62H212.54c-0.55,0-1-0.45-1-1v-105c0-0.55,0.45-1,1-1c0.55,0,1,0.45,1,1v104h210.12
						c0.55,0,1,0.45,1,1C424.66,331.18,424.21,331.62,423.66,331.62z"/>
				</g>
				<g>
					<g>
						<path class="st10" d="M212.54,222c-0.63,1.7-1.71,3.82-2.85,5.13l2.85-1.03l2.85,1.03C214.25,225.82,213.17,223.7,212.54,222z
							"/>
					</g>
				</g>
				<g>
					<g>
						<path class="st10" d="M427.28,330.62c-1.7,0.63-3.82,1.71-5.13,2.85l1.03-2.85l-1.03-2.85
							C423.46,328.91,425.58,329.99,427.28,330.62z"/>
					</g>
				</g>
			</g>
		</g>
	</g>
	<g>
		<path class="st6" d="M1030.05,700.31H92.08c-0.83,0-1.5-0.67-1.5-1.5c0-0.83,0.67-1.5,1.5-1.5h937.97c0.83,0,1.5,0.67,1.5,1.5
			C1031.55,699.64,1030.87,700.31,1030.05,700.31z"/>
	</g>
	<g>
		<g>
			<g>
				<path class="st14" d="M498.65,509.5c51.91,16.12,108.01,13.93,157.72-8.07c36.18-16.01,72.35-43.26,72.37-88.22
					c0.03-100.41-172.78-221.99-285.92-173.04c-113.14,48.95-49.12,197.17-8.77,234.89C451,490.91,474.62,502.04,498.65,509.5z"/>
			</g>
			<g>
				
					<ellipse transform="matrix(0.9314 -0.364 0.364 0.9314 -103.5097 205.4005)" class="st15" cx="493.25" cy="377.35" rx="83.67" ry="123.1"/>
			</g>
			<g>
				<g>
					<path class="st16" d="M430.86,697.33c-0.09,0-0.18-0.01-0.28-0.02c-0.94-0.15-1.57-1.03-1.42-1.97l34.73-214.06
						c0.15-0.94,1.02-1.58,1.97-1.42c0.94,0.15,1.57,1.03,1.42,1.97l-23.68,215.51C440.69,697.71,431.69,697.33,430.86,697.33z"/>
				</g>
				<g>
					<path class="st16" d="M711.26,687.1c-0.83,0-1.56-0.6-1.69-1.44l-33.03-203.84c-0.15-0.94,0.48-1.82,1.42-1.97
						c0.94-0.16,1.82,0.48,1.97,1.42l33.03,203.84c0.15,0.94-0.48,1.82-1.42,1.97C711.44,687.1,711.35,687.1,711.26,687.1z"/>
				</g>
				<g>
					<path class="st16" d="M571.92,697.32c-0.95,0-3.72,0.05-4.58,0.02l2.85-196.24c0-0.95,0.77-1.72,1.72-1.72
						c0.95,0,1.72,0.77,1.72,1.72l1.69,196.24C574.04,697.3,572.87,697.32,571.92,697.32z"/>
				</g>
			</g>
		</g>
		<g>
			<g>
				<path class="st17" d="M828.64,323.65c0.1,0.32,1.46,5.04,2.68,5.91c1.22,0.86,2.51,1.02,2.51,1.02s1.27,4.74,3.09,5.39
					c1.82,0.65,3.97,0.2,3.97,0.2s2.68,3.13,4.39,3.42c1.71,0.3,2.82-5.11,1.64-7.37c-1.17-2.26-6.61-8.12-9.47-9.06
					C834.6,322.22,828.64,323.65,828.64,323.65z"/>
			</g>
			<g>
				<path class="st18" d="M844.94,321.81c-2.88-1.97-5.8-4.09-5.8-4.09s-0.89-3.37-2.44-4c-1.56-0.63-20.42-1.44-21.4-1.65
					c-0.97-0.21-5.22-1.23-5.93-1.08c-0.71,0.15-2.73,1.94-4.38,2.98c-1.65,1.03-27.7,12.92-36.49,13.01
					c-0.33-0.06-0.54-0.09-0.54-0.09s-58.88-3.72-88.49-6.37c-2.76-0.25-21.58-0.3-21.58-0.3c-3.79,0.39-5.83,3.52-6.8,7.82
					c-3.63,16.07,9.34,28.27,25.53,31.38c16.47,3.16,62-7.65,77.78-9.92c0.75-0.11,14.95-4.02,15.71-3.93
					c4.73,0.58,24.23,2.6,26.98,2.9c3.13,0.34,19.36-4.22,23.09-4.87c3.74-0.65,20.72-0.54,20.02-6.27
					c-0.71-5.73-12.26-3.44-16.2-2.47c-3.94,0.97-8.9,1.1-8.9,1.1s-0.47-3.5,0.17-4.87c0.64-1.37,17.41-7.36,19.92-7.07
					c2.51,0.29,6.87,6.08,8.98,7.55c2.12,1.47,6.61,2.3,7.57,1C852.7,331.29,847.81,323.78,844.94,321.81z"/>
			</g>
			<g class="st11">
				<g>
					<path class="st17" d="M815.3,312.08c0.97,0.21,19.84,1.02,21.4,1.65c1.56,0.63,2.44,4,2.44,4s2.92,2.12,5.8,4.09
						s7.76,9.47,6.8,10.77c-0.96,1.3-5.46,0.47-7.57-1c-1.89-1.31-5.56-6.06-8.12-7.27c0.75-3.21,0.48-6.49-1.56-9.53l-14.76,0.65
						c0,0-3.62-2.44-6.75-3.87C813.98,311.78,814.91,312,815.3,312.08z"/>
				</g>
				<g class="st19">
					<path class="st20" d="M821.82,343.43L821.82,343.43c0,0,5.29-4.1,9.5-9.75c4.2-0.3,8.45,0.27,8.87,3.67
						C840.82,342.46,827.37,342.93,821.82,343.43z"/>
				</g>
			</g>
		</g>
		<g>
			<g>
				<path class="st21" d="M705.01,322.39c0.52-1.17-2.33-2.84-6.31-4.82c-10.11-5.02-18.33-13.14-23.39-23.23
					c-5.57-11.11-12.05-21.65-18.91-45.17c-14.22-48.75-17.05-33.25-17.05-33.25c0.52,2.53-34.94,2.58-29.9,28.33
					c3.97,20.32,21.61,88.68,56.76,113.36c11.15,7.83,33.95,3.01,33.64,1.91C696.82,349.02,701.32,330.61,705.01,322.39z"/>
			</g>
		</g>
		<g>
			<g>
				<path class="st22" d="M652.51,398.28c-44.24,5.22-85.07-3.34-85.07-3.34l7.72-32.89l-53.33-22.03c0,0-26.86,84.71,0.32,110.75
					c9.83,9.42,65.23,8.78,95.66,6.94C625.99,437.22,638.97,409.31,652.51,398.28z"/>
			</g>
			<g>
				<defs>
					<path id="SVGID_1_" d="M652.51,398.28c-35.26-2.18-85.07-3.34-85.07-3.34l7.72-32.89l-53.33-22.03c0,0-26.86,84.71,0.32,110.75
						c9.83,9.42,65.23,8.78,95.66,6.94C625.99,437.22,638.97,409.31,652.51,398.28z"/>
				</defs>
				<use xlink:href="#SVGID_1_"  style="overflow:visible;fill:#640002;"/>
				<clipPath id="SVGID_2_">
					<use xlink:href="#SVGID_1_"  style="overflow:visible;"/>
				</clipPath>
			</g>
		</g>
		<g>
			<path class="st23" d="M727.16,428.98c-0.65-1.88-1.4-2.3-2.16-0.92c-8.89,16-119.08,46.21-249.71-12.9
				c-103.92-47.02-68.43-149.72-68.43-149.72c-0.7,0.31-1.39,0.63-2.07,0.97c-57.41,62.56-17.75,213.03,93.87,243.09
				c52.49,14.13,108.01,13.93,157.72-8.07C688.1,487.39,719.83,464.7,727.16,428.98z"/>
		</g>
		<g>
			<g>
				<g>
					<defs>
						<path id="SVGID_3_" d="M713.75,650.57l3.81,17.87c0,0-10.04,10.76-19.43,7.57c-5.46-1.86-8.31-4.73-8.31-4.73l4.06-21.86
							L713.75,650.57z"/>
					</defs>
					<use xlink:href="#SVGID_3_"  style="overflow:visible;fill:#FDC6BF;"/>
					<clipPath id="SVGID_4_">
						<use xlink:href="#SVGID_3_"  style="overflow:visible;"/>
					</clipPath>
					<g class="st24">
						<g>
							<defs>
								<path id="SVGID_5_" d="M713.75,650.57l3.81,17.87c0,0-10.04,10.76-19.43,7.57c-5.46-1.86-8.31-4.73-8.31-4.73l4.06-21.86
									L713.75,650.57z"/>
							</defs>
							<clipPath id="SVGID_6_">
								<use xlink:href="#SVGID_5_"  style="overflow:visible;"/>
							</clipPath>
							<g class="st25">
								<path class="st26" d="M720.66,655.6l-13.2,1.55c-4.72,0.55-8.57,4.02-9.58,8.66c-1.27,5.84-2.56,13.09-1.51,14.56
									c1.81,2.54-15.09-2.23-15.09-2.23l3.36-17.9l5.18-19.71l38.21-2.09L720.66,655.6z"/>
							</g>
						</g>
					</g>
				</g>
			</g>
			<g>
				<g>
					<g>
						<path class="st27" d="M764.81,426.22c-0.51-11.6-13.45-33.91-55.35-36.78c-34.43-2.36-95.32-1.27-95.32-1.27l6.81,55.19
							c0,0,52.55,11.56,82.85,10.25c-5.85,42.7-18.92,113.83-14.76,194.57c0.21,4.17,3.8,7.38,7.96,7.18l7.31-0.34
							c5.81-0.27,10.89-3.93,12.96-9.37C729.33,614.02,768.28,504.99,764.81,426.22z"/>
					</g>
				</g>
				<g>
					<defs>
						<path id="SVGID_7_" d="M764.81,426.22c-0.51-11.6-13.45-33.91-55.35-36.78c-34.43-2.36-95.32-1.27-95.32-1.27l6.81,55.19
							c0,0,52.55,11.56,82.85,10.25c-5.85,42.7-18.92,113.83-14.76,194.57c0.21,4.17,3.8,7.38,7.96,7.18l7.31-0.34
							c5.81-0.27,10.89-3.93,12.96-9.37C729.33,614.02,768.28,504.99,764.81,426.22z"/>
					</defs>
					<clipPath id="SVGID_8_">
						<use xlink:href="#SVGID_7_"  style="overflow:visible;"/>
					</clipPath>
				</g>
			</g>
			<g>
				<g>
					<path d="M764.65,692.01c0,0,2.04-2.33,2.63-1.19c0.6,1.14,1.8,8.81-1.91,11.65c-4.47,3.42-15.74,4.57-25.97,2.87
						c-10.23-1.7-24-5.49-27.92-5.97c-3.92-0.47-23.24-0.46-24.34-3.11c-1.11-2.65,0.63-13.21,0.63-13.21L764.65,692.01z"/>
				</g>
				<g>
					<path class="st3" d="M689.47,670.67c-2.72-0.12-2.58,17.14-1.96,18.5c0.61,1.36,29.59,5.32,43.8,8.07
						c27.08,5.23,36.1-0.05,35.98-6.42c-0.05-2.39-17.83-5.67-19.05-7.37c-1.23-1.7-20.46-18.61-26.14-20.83
						c-2.44-0.95-10.47-2.49-13.08,1.55c-1.42,0.92-1.18,3.76-3.6,6.45C702.99,673.3,692.19,670.79,689.47,670.67z"/>
				</g>
				<g>
					<path class="st28" d="M707.2,691.81c-3.14-2.13-6.1-4.67-8.09-7.95c-2.31-3.81-2.16-7.95-2.13-12.22
						c-3.15-0.32-6.23-0.91-7.52-0.96c-2.72-0.12-2.58,17.14-1.96,18.5c0.37,0.82,11.09,2.59,22.65,4.47
						C709.15,693.07,708.16,692.47,707.2,691.81z"/>
				</g>
				<g>
					<path class="st29" d="M716.28,671.08c-0.12,0-0.24-0.04-0.34-0.11c-0.25-0.19-0.31-0.55-0.12-0.8
						c0.05-0.07,5.05-6.69,13.84-4.07c0.3,0.09,0.48,0.41,0.39,0.71c-0.09,0.3-0.4,0.47-0.71,0.39c-8-2.38-12.41,3.41-12.59,3.65
						C716.63,671,716.45,671.08,716.28,671.08z"/>
				</g>
				<g>
					<path class="st29" d="M722.88,677.15c-0.12,0-0.24-0.04-0.34-0.11c-0.26-0.19-0.31-0.55-0.12-0.8
						c0.05-0.07,5.04-6.7,13.84-4.07c0.3,0.09,0.48,0.41,0.39,0.71c-0.09,0.3-0.4,0.48-0.71,0.39c-8.03-2.4-12.54,3.59-12.59,3.65
						C723.23,677.06,723.06,677.15,722.88,677.15z"/>
				</g>
				<g>
					<path class="st29" d="M729.49,682.23c-0.12,0-0.24-0.04-0.34-0.11c-0.25-0.19-0.31-0.55-0.12-0.8
						c0.05-0.07,5.04-6.69,13.84-4.07c0.3,0.09,0.48,0.41,0.39,0.71c-0.09,0.3-0.4,0.48-0.71,0.39c-8.01-2.39-12.41,3.4-12.59,3.65
						C729.84,682.15,729.67,682.23,729.49,682.23z"/>
				</g>
			</g>
		</g>
		<g>
			<path class="st16" d="M563.92,505.84c-60.02,0-112.35-10.64-130.21-26.47c-0.71-0.63-0.77-1.72-0.15-2.43
				c0.63-0.71,1.71-0.78,2.43-0.15c17.01,15.08,69.62,25.61,127.94,25.61c58.31,0,110.92-10.53,127.94-25.61
				c0.71-0.63,1.8-0.56,2.43,0.15c0.63,0.71,0.56,1.8-0.15,2.43C676.27,495.2,623.94,505.84,563.92,505.84z"/>
		</g>
		<g>
			<g>
				<polygon class="st27" points="564.82,175.39 556.86,157.73 568.43,157.73 				"/>
			</g>
			<g>
				<path class="st21" d="M632.71,206.23c-5.85-2.44-20.91-9.12-54.06-14.84c-14.32-2.47-28.99-2.3-43.2,0.73
					c-8.55,1.82-17.29,4.47-22.52,8.23c0,0-8.29,20.22,2.98,63.97c6.47,25.11,5.56,51.6,4.75,56.25
					c-2.02,11.55-4.41,29.86-7.33,42.16c-5.2,21.9-3.34,47.58-3.34,47.58s5.88-14.58,55.08-4.39c49.2,10.19,68.84-22.06,68.84-22.06
					l4.87-6.51c0,0,0,0,0,0c-4.37-6.61-6.89-14.27-7.25-22.18c-0.69-14.91-0.63-35.83,0.48-41.83c1.64-8.83,15.79-68.23,16.02-84.24
					C648.17,219.19,642.11,210.15,632.71,206.23z"/>
			</g>
			<g>
				<defs>
					<path id="SVGID_9_" d="M632.71,206.23c-5.85-2.44-20.91-9.12-54.06-14.84c-14.32-2.47-28.99-2.3-43.2,0.73
						c-8.55,1.82-17.29,4.47-22.52,8.23c0,0-8.29,20.22,2.98,63.97c6.47,25.11,5.56,51.6,4.75,56.25
						c-2.02,11.55-4.41,29.86-7.33,42.16c-5.2,21.9-3.34,47.58-3.34,47.58s5.88-14.58,55.08-4.39
						c49.2,10.19,68.84-22.06,68.84-22.06l4.87-6.51c0,0,0,0,0,0c-4.37-6.61-6.89-14.27-7.25-22.18
						c-0.69-14.91-0.63-35.83,0.48-41.83c1.64-8.83,15.79-68.23,16.02-84.24C648.17,219.19,642.11,210.15,632.71,206.23z"/>
				</defs>
				<clipPath id="SVGID_10_">
					<use xlink:href="#SVGID_9_"  style="overflow:visible;"/>
				</clipPath>
				<g class="st30">
					<g>
						<g>
							<path class="st31" d="M618.45,322.4c-8.46,18.81-18.34,83.88-11.99,83.37c15.88-1.3,70.16-28.44,70.16-28.44l7.13-74.89
								c0,0,9.59-43.7,12.22-60.61c2.63-16.91-2.07-60.48-2.07-60.48c-6.68-6.21-33.01,8.6-44.69,10.68
								c-2.15,0.38-3.19,2.47-2.96,4.64c6.26,59.23,4.54,121.25-75.11,105.85c-2.53-0.49-4.94,1.29-5.58,3.78
								C563.53,314.22,624.29,309.43,618.45,322.4z"/>
						</g>
					</g>
				</g>
			</g>
			<g>
				<g>
					<path class="st18" d="M563.86,160.61c0,0,2.68,18.8-0.2,28.59c-0.52,1.77-0.28,3.66,0.72,5.21
						c4.22,6.57,16.29,22.25,33.35,18.33c6.53-1.5-1.66-18.63,0.08-30.02c1.89-12.43,0.93-20.45,0.93-20.45L563.86,160.61z"/>
				</g>
				<g>
					<defs>
						<path id="SVGID_11_" d="M563.42,161.8c0,0,3.12,17.6,0.23,27.4c-0.52,1.77-0.28,3.66,0.72,5.21
							c4.22,6.57,16.29,22.25,33.35,18.33c6.53-1.5-1.66-18.63,0.08-30.02c1.89-12.43,0.93-20.45,0.93-20.45L563.42,161.8z"/>
					</defs>
					<clipPath id="SVGID_12_">
						<use xlink:href="#SVGID_11_"  style="overflow:visible;"/>
					</clipPath>
				</g>
			</g>
			<g class="st11">
				<path class="st26" d="M567.53,167.46c0,0,8.47,30.14,31.99,33.74l-1.81-11.59L567.53,167.46z"/>
			</g>
			<g>
				<path class="st18" d="M563.19,158.99c0,0,10.55,28.67,38.3,31.12c27.75,2.45,22.42-42.54,22.61-69.57c0,0,0.17-19.03-13.5-19.42
					C584.36,100.38,536.75,88.03,563.19,158.99z"/>
			</g>
			<g>
				<path class="st18" d="M574.25,147.59c-0.47,7.82-7.08,13.78-14.76,13.31c-7.68-0.47-13.51-7.18-13.04-15
					c0.47-7.82,7.08-13.78,14.76-13.31C568.88,133.06,574.72,139.78,574.25,147.59z"/>
			</g>
			<g class="st11">
				<path class="st26" d="M548.74,138.95c-1.31,2.01-2.13,4.38-2.29,6.96c-0.47,7.82,5.36,14.53,13.04,15
					c1.81,0.11,3.57-0.14,5.19-0.69C555.81,156.23,550.52,148.14,548.74,138.95z"/>
			</g>
			<g class="st11">
				<g>
					<path class="st26" d="M556.01,140.23c1.6-0.37,3.27-0.04,4.58,0.96c1.17,0.89,1.86,2.28,2.03,3.74
						c0.06,0.54,0.69,0.88,1.19,0.77c0.57-0.12,0.83-0.65,0.77-1.19c-0.23-1.97-1.31-3.79-2.88-4.99c-1.71-1.31-4.03-1.74-6.11-1.26
						C554.35,138.56,554.75,140.52,556.01,140.23L556.01,140.23z"/>
				</g>
			</g>
			<g>
				<path class="st27" d="M600.47,144.32c-0.1,1.67-1.15,2.96-2.35,2.89c-1.2-0.07-2.09-1.48-1.98-3.15s1.15-2.96,2.35-2.89
					C599.68,141.24,600.57,142.65,600.47,144.32z"/>
			</g>
			<g>
				<path class="st27" d="M617.72,145.37c-0.1,1.67-1.15,2.96-2.35,2.89c-1.2-0.07-2.09-1.48-1.98-3.15
					c0.1-1.67,1.15-2.96,2.35-2.89C616.94,142.29,617.83,143.7,617.72,145.37z"/>
			</g>
			<g>
				<g>
					<path class="st27" d="M595.44,138.5c0.67-1.04,1.87-1.68,3.06-1.62c1.2,0.06,2.33,0.8,2.9,1.89c0.59,1.14,2.38,0.25,1.79-0.9
						c-0.87-1.7-2.64-2.89-4.56-2.99c-1.92-0.1-3.81,0.9-4.85,2.5C593.07,138.47,594.73,139.58,595.44,138.5L595.44,138.5z"/>
				</g>
			</g>
			<g>
				<g>
					<path class="st27" d="M613,139.32c0.01-0.02,0.16-0.21,0.11-0.15c-0.04,0.05,0.08-0.08,0.09-0.1c0.11-0.11,0.22-0.22,0.35-0.31
						c0.02-0.02,0.21-0.16,0.15-0.11c-0.05,0.04,0.1-0.06,0.11-0.07c0.13-0.08,0.27-0.15,0.41-0.22c0,0,0.24-0.1,0.17-0.07
						c-0.06,0.02,0.11-0.03,0.12-0.04c0.15-0.04,0.3-0.08,0.46-0.11c0.09-0.01,0.17-0.03,0.26-0.04c0.18-0.02-0.22-0.01,0.1,0
						c0.16,0,0.31,0.01,0.47,0.02c0.07,0.01,0.13,0.02,0.2,0.03c0.17,0.03-0.21-0.07,0.08,0.02c0.15,0.04,0.29,0.09,0.43,0.14
						c0.06,0.02,0.13,0.05,0.19,0.08c0.06,0.03,0.06,0.03,0-0.01c0.03,0.02,0.06,0.03,0.09,0.05c0.13,0.08,0.26,0.15,0.39,0.24
						c0.06,0.04,0.11,0.08,0.16,0.12c0.04,0.03,0.17,0.15,0.08,0.06c0.11,0.1,0.22,0.21,0.32,0.33c0.04,0.05,0.09,0.1,0.13,0.16
						c0.03,0.04,0.13,0.19,0.06,0.08c0.09,0.14,0.17,0.29,0.24,0.44c0.23,0.49,0.87,0.68,1.34,0.44c0.49-0.25,0.68-0.86,0.44-1.34
						c-0.75-1.57-2.31-2.65-4.03-2.84c-1.77-0.19-3.52,0.67-4.57,2.08c-0.32,0.43-0.16,1.1,0.28,1.39
						C612.08,139.91,612.67,139.76,613,139.32L613,139.32z"/>
				</g>
			</g>
			<g>
				<g>
					<path class="st27" d="M608.08,147.52c-0.22,1.21-0.31,2.49,0.14,3.66c0.48,1.26,1.49,1.81,2.51,2.57
						c1.21,0.9,1.19,2.42,0.34,3.59c-0.91,1.25-2.53,1.78-3.93,2.26c-0.6,0.2-0.4,1.19,0.21,0.98c1.47-0.5,3.02-1.03,4.13-2.17
						c0.93-0.96,1.48-2.43,1.11-3.75c-0.44-1.56-2.01-1.87-2.95-2.99c-0.94-1.13-0.8-2.72-0.56-4.07
						C609.2,146.95,608.2,146.9,608.08,147.52L608.08,147.52z"/>
				</g>
			</g>
			<g class="st11">
				<path class="st26" d="M623.93,158.56c0.1-2.7,0.22-5.38,0.4-8.07c0.01-0.1,0.02-0.19,0.03-0.28c-0.24-0.04-0.49-0.07-0.75-0.08
					c-4.16-0.25-7.73,2.91-7.98,7.07c-0.25,4.15,2.91,7.73,7.07,7.98c0.21,0.01,0.42,0.01,0.63,0.01
					C623.5,162.97,623.85,160.78,623.93,158.56z"/>
			</g>
			<g class="st11">
				<path class="st26" d="M596.19,156.01c-0.25,4.15-3.83,7.32-7.98,7.07c-4.16-0.25-7.32-3.83-7.07-7.98
					c0.25-4.15,3.83-7.32,7.98-7.07C593.28,148.28,596.45,151.85,596.19,156.01z"/>
			</g>
			<g class="st32">
				<g>
					<path class="st0" d="M594.45,165.18c0,0,5.02,7.29,14.98,5.6c1.95-0.33,1.77-2.15-0.22-2.12
						C600.94,168.74,596.27,166.95,594.45,165.18z"/>
				</g>
			</g>
			<g>
				<path class="st33" d="M626.63,110.56c1.12,1.7,2.25,3.4,3.37,5.09c1.61,2.43,3.26,4.96,3.73,7.84
					c0.91,5.6-3.79,11.49-9.44,11.94c-0.03-1.7-0.07-3.74-0.1-5.33c-0.04-2.06-3.23-1.14-5.29-1.16
					c-5.83-0.08-11.55-3.04-14.98-7.75c-0.95-1.3-2.15-2.92-3.72-2.61c-1.66,0.33-2.09,2.44-2.57,4.06c-0.9,3.01-3.26,5.56-6.2,6.67
					c-2.94,1.12-6.39,0.79-9.07-0.86c-1.27-0.78-2.36-1.84-3.69-2.52c-1.32-0.68-3.03-0.93-4.25-0.07
					c-2.77,1.96-0.25,6.73-2.05,9.62c-1.07,1.72-3.44,2.22-5.42,1.77c-1.98-0.45-3.69-1.63-5.44-2.66s-3.51-2.06-5.41-1.34
					c-1.76,0.67-2.11,0.96-3.32,1.68c-0.55,0.32-2.35,1.9-2.35,1.9c-2.89-6.29-5.46-11.97-5.84-18.88
					c-0.38-6.91,1.77-16.02,7.86-19.31c6.2-3.36,13.61-2.82,20.41-0.94c0.23-5.11,5.06-8.31,9.72-10.42
					c4.66-2.1,10.13-2.19,15.21-1.64c5.6,0.61,11,3.66,15.43,7.14c3.4,2.66,5.84,6.32,8.22,9.92
					C623.16,105.32,624.89,107.94,626.63,110.56z"/>
			</g>
			<g>
				<path class="st27" d="M631.34,117.74c-7.31,2.5-14.75,2.52-22.38,0.94c-3.13-0.65-6.26-1.69-9.25-0.08
					c-2.93,1.58-5.66,3.6-9.05,4.07c-3.63,0.51-7.42-0.74-10.89-1.72c-1.72-0.48-3.49-1.25-5.3-1.28c-1.46-0.02-2.57,0.71-3.76,1.48
					c-2.87,1.85-5.52,3.44-9,3.78c-3.45,0.34-6.86-0.22-10.24-0.92c-2.14-0.45-4.34-1.06-6.4-1.94c0.95,5.15,3.04,9.76,5.34,14.75
					c0,0,1.8-1.57,2.35-1.89c1.22-0.72,1.56-1.01,3.32-1.68c1.9-0.72,3.66,0.31,5.41,1.34s3.47,2.21,5.44,2.66
					c1.98,0.45,4.35-0.05,5.42-1.77c1.79-2.89-0.73-7.66,2.05-9.62c1.22-0.86,2.92-0.61,4.25,0.07c1.32,0.68,2.42,1.74,3.69,2.52
					c2.68,1.65,6.13,1.98,9.07,0.86c2.94-1.12,5.3-3.66,6.2-6.68c0.49-1.62,0.91-3.73,2.57-4.06c1.58-0.31,2.78,1.31,3.72,2.61
					c3.43,4.71,9.15,7.67,14.98,7.75c2.06,0.03,5.25-0.89,5.29,1.16c0.03,1.59,0.07,3.63,0.1,5.33c5.66-0.45,10.35-6.33,9.44-11.94
					C633.39,121.42,632.44,119.54,631.34,117.74z"/>
			</g>
		</g>
		<g>
			<defs>
				<path id="SVGID_13_" d="M727.16,428.98c-0.65-1.88-1.4-2.3-2.16-0.92c-8.89,16-119.08,46.21-249.71-12.9
					c-103.92-47.02-68.43-149.72-68.43-149.72c-0.7,0.31-1.39,0.63-2.07,0.97c-57.41,62.56-17.75,213.03,93.87,243.09
					c52.49,14.13,108.01,13.93,157.72-8.07C688.1,487.39,719.83,464.7,727.16,428.98z"/>
			</defs>
			<clipPath id="SVGID_14_">
				<use xlink:href="#SVGID_13_"  style="overflow:visible;"/>
			</clipPath>
		</g>
		<g>
			<g>
				<path class="st18" d="M608.34,347.28l-22.36,0.83c-14.42,0.53-28.84-0.94-42.86-4.37c-11.27-2.76-23.59-5.73-27.3-6.43
					c-7.33-1.39-21.59-5.72-35.51,8.87c-4.51,4.73-4.52,13.81-3.38,15.45c6.78,9.8,15.68,16.3,33.62,17.98
					c17.94,1.68,99.76-13.4,99.76-13.4L608.34,347.28z"/>
			</g>
			<g>
				<defs>
					<path id="SVGID_15_" d="M608.34,347.28l-22.36,0.83c-14.42,0.53-28.84-0.94-42.86-4.37c-11.27-2.76-23.59-5.73-27.3-6.43
						c-7.33-1.39-21.59-5.72-35.51,8.87c-4.51,4.73-4.52,13.81-3.38,15.45c6.78,9.8,15.68,16.3,33.62,17.98
						c17.94,1.68,99.76-13.4,99.76-13.4L608.34,347.28z"/>
				</defs>
				<clipPath id="SVGID_16_">
					<use xlink:href="#SVGID_15_"  style="overflow:visible;"/>
				</clipPath>
				<g class="st34">
					<path class="st26" d="M516.05,333.7c0,0-7.11,6.72-11.63,16.76c-4.36,9.68,2.75,20.66,13.37,20.83
						c11.65,0.18,26.71,0.03,36.01-1.55c16.63-2.83,52.51-4.65,59.24-4.05c6.73,0.6-47.93,21.67-47.93,21.67l-92.19,6.11
						l-6.46-62.52C466.46,330.95,502.89,328.99,516.05,333.7z"/>
				</g>
			</g>
			<g>
				<g>
					<path class="st18" d="M677.32,357.81c-0.79-1.14-12.12-8.68-13.99-9.53c-1.87-0.84-7.92-4.17-7.92-4.17s4.84,0.92,6.51,1.74
						c1.67,0.83,11.31,6.59,12.75,6.12c1.43-0.47,3.09-2.98,2.47-3.99c-0.62-1.01-11.94-8.43-15.49-9.58
						c-3.55-1.16-18.35-3.41-18.35-3.41c-7.62-0.1-37.3,12.5-37.3,12.5s-7.08,11.67-4.73,14.52c2.34,2.85,11.74,4.83,17.68,4.69
						c8.24-0.2,21.86,0.74,21.86,0.74c3.32,1.58,14.66,5.89,17.88,6.58c3.22,0.68,3.71-3.12,3.35-3.9
						c-0.36-0.78-7.01-4.06-9.41-5.17c-2.4-1.11-6.82-4.97-6.82-4.97s6.74,0.43,9.47,1.75c2.73,1.32,10.08,6.05,12.76,6.4
						c2.68,0.35,4.82-4.02,4.38-4.67c-0.44-0.65-5.39-4.27-5.39-4.27s5.42,3.17,7.22,2.97C676.05,361.98,678.1,358.95,677.32,357.81
						z"/>
				</g>
				<g>
					<defs>
						<path id="SVGID_17_" d="M677.32,357.81c-0.79-1.14-12.12-8.68-13.99-9.53c-1.87-0.84-7.92-4.17-7.92-4.17s4.84,0.92,6.51,1.74
							c1.67,0.83,11.31,6.59,12.75,6.12c1.43-0.47,3.09-2.98,2.47-3.99c-0.62-1.01-11.94-8.43-15.49-9.58
							c-3.55-1.16-18.35-3.41-18.35-3.41c-7.62-0.1-37.3,12.5-37.3,12.5s-7.08,11.67-4.73,14.52c2.34,2.85,11.74,4.83,17.68,4.69
							c8.24-0.2,21.86,0.74,21.86,0.74c3.32,1.58,14.66,5.89,17.88,6.58c3.22,0.68,3.71-3.12,3.35-3.9
							c-0.36-0.78-7.01-4.06-9.41-5.17c-2.4-1.11-6.82-4.97-6.82-4.97s6.74,0.43,9.47,1.75c2.73,1.32,10.08,6.05,12.76,6.4
							c2.68,0.35,4.82-4.02,4.38-4.67c-0.44-0.65-5.39-4.27-5.39-4.27s5.42,3.17,7.22,2.97
							C676.05,361.98,678.1,358.95,677.32,357.81z"/>
					</defs>
					<clipPath id="SVGID_18_">
						<use xlink:href="#SVGID_17_"  style="overflow:visible;"/>
					</clipPath>
					<g class="st35">
						<path class="st26" d="M677.69,343.26c0.22,0.54,1.63,3.4,1.27,4.55c-0.37,1.15-3.65,2.88-6.45,1.37
							c-11.84-6.38-17.1-5.06-17.1-5.06s12.2,3.34,7.88,8.45c-1.62,1.92-1.96,3.11-1.96,3.11s-0.13,5.2-5.61,7.3
							c-5.48,2.11-4.69,0.62-4.69,0.62s4.32,4.12-3.72,7.27c-8.04,3.15,7.76,8.7,7.76,8.7l18.91-7.26l6.76-14.54l0.88-11.54
							L677.69,343.26z"/>
					</g>
				</g>
			</g>
		</g>
		<g>
			<g>
				<g>
					<path class="st21" d="M510.92,336.25c-1.11-2.26-4.64-2.07-5.78-3.46c-2.49-3.04,27.19-60.28,32.46-78.15
						c7.7-26.12,9.23-48.67-2.87-55.87c-5.95-3.54-15.98-2.53-21.83,1.16c-7.46,4.71-17.05,14.12-24.02,29.78
						c-29.42,66.09-35.68,112.65-25.94,137.43c1.92,4.87,5.55,6.29,8.27,6.61c2.24,0.27,4.39,0.99,6.47,1.88
						c2.64,1.14,7.32,2.15,15.15,1.1C491.03,365.77,499.76,340.71,510.92,336.25z"/>
				</g>
			</g>
			<g>
				<defs>
					<path id="SVGID_19_" d="M510.92,336.25c-1.11-2.26-4.64-2.07-5.78-3.46c-2.49-3.04,27.19-60.28,32.46-78.15
						c7.7-26.12,9.23-48.67-2.87-55.87c-5.95-3.54-15.98-2.53-21.83,1.16c-7.46,4.71-17.1,13.03-22.4,25.84
						c-27.67,66.85-37.3,116.59-27.56,141.37c1.92,4.87,5.55,6.29,8.27,6.61c2.24,0.27,4.39,0.99,6.47,1.88
						c2.64,1.14,7.32,2.15,15.15,1.1C491.03,365.77,499.76,340.71,510.92,336.25z"/>
				</defs>
				<clipPath id="SVGID_20_">
					<use xlink:href="#SVGID_19_"  style="overflow:visible;"/>
				</clipPath>
			</g>
		</g>
		<g>
			<g>
				<path class="st0" d="M844.15,378.66H717.12c-2.75,0-4.75-2.6-4.03-5.26l22.42-83.68c0.49-1.83,2.14-3.1,4.03-3.1h127.03
					c2.75,0,4.75,2.6,4.03,5.26l-22.42,83.68C847.69,377.39,846.04,378.66,844.15,378.66z"/>
			</g>
			<g>
				<path class="st36" d="M850.63,384.36H668.22v-5.79c0-0.57,0.46-1.03,1.03-1.03h182.41v5.79
					C851.66,383.9,851.2,384.36,850.63,384.36z"/>
			</g>
			<g>
				<path class="st36" d="M848.89,378.66H721.86c-2.75,0-4.75-2.6-4.03-5.26l22.42-83.68c0.49-1.83,2.14-3.1,4.03-3.1h127.03
					c2.75,0,4.75,2.6,4.03,5.26l-22.42,83.68C852.44,377.39,850.78,378.66,848.89,378.66z"/>
			</g>
			<g>
				<path class="st37" d="M873,286.99c-6.19,8.18-13.12,15.84-19.8,23.6c-17.67,20.52-39.53,37.79-64.12,49.29
					c-12.45,5.82-25.54,10.29-38.91,13.45c-9.02,2.13-18.21,3.52-27.31,5.35h126.03c1.89,0,3.54-1.27,4.03-3.1l22.42-83.68
					C875.9,289.82,874.81,287.79,873,286.99z"/>
			</g>
			<g class="st38">
				
					<ellipse transform="matrix(0.9231 -0.3847 0.3847 0.9231 -67.0305 330.2021)" class="st0" cx="791.84" cy="332.65" rx="8.52" ry="8.52"/>
			</g>
		</g>
		<g>
			<path class="st33" d="M659.98,398.78c-2.39-0.17-41.79,1.45-44.37,1.29c-1.47,19.54-1.47,28.31-2.32,49.6l0.73,0.85
				c3.79,4.4,5.49,10.24,4.62,15.98c-10.68,70.6,0.8,114.78,9.78,189.61c0.6,5.04,4.7,8.95,9.76,9.32l7.29,0.54
				c8.29,0.61,15.69-5.14,17.15-13.32C672.44,597.4,704,401.9,659.98,398.78z"/>
		</g>
		<g>
			<defs>
				<path id="SVGID_21_" d="M659.98,398.78c-2.39-0.17-41.79,1.45-44.37,1.29c-1.47,19.54-1.47,28.31-2.32,49.6l0.73,0.85
					c3.79,4.4,5.49,10.24,4.62,15.98c-10.68,70.6,0.8,114.78,9.78,189.61c0.6,5.04,4.7,8.95,9.76,9.32l7.29,0.54
					c8.29,0.61,15.69-5.14,17.15-13.32C672.44,597.4,704,401.9,659.98,398.78z"/>
			</defs>
			<clipPath id="SVGID_22_">
				<use xlink:href="#SVGID_21_"  style="overflow:visible;"/>
			</clipPath>
		</g>
		<g>
			<g>
				<path d="M670.73,689.75c0,0,1.87,11.91,0.55,15.57c-1.33,3.66-10.83,4.44-14.43,5.03c-3.6,0.59-22.26,2.72-25.4-6.03
					c-1.82-5.06-1.09-19.91-1.09-19.91L670.73,689.75z"/>
			</g>
			<g>
				<path class="st3" d="M663.81,662.28c-0.19-2.59-1.09-5.14-2.88-7.02c-0.84-0.88-1.9-1.69-3.21-2.2
					c-4.37-1.7-16.66-0.83-19.04,0.46s-5.31,3.26-7.58,8.43c-0.21,0.49-2.27,29.44,0.05,32.61c10.35,14.11,34.65,8.57,39.05,2.59
					c3.4-4.61-2.17-17.23-3.98-20.87C664.86,673.54,664.1,666.22,663.81,662.28z"/>
			</g>
			<g>
				<path class="st29" d="M641.18,664.47c-0.21,0-0.41-0.12-0.51-0.32c-0.14-0.28-0.02-0.63,0.26-0.77
					c0.35-0.17,8.63-4.17,16.17-0.65c0.29,0.13,0.41,0.48,0.28,0.76c-0.13,0.29-0.48,0.41-0.76,0.28c-7.03-3.29-15.1,0.6-15.18,0.64
					C641.35,664.45,641.26,664.47,641.18,664.47z"/>
			</g>
			<g>
				<path class="st29" d="M642.83,671.16c-0.21,0-0.41-0.12-0.51-0.32c-0.14-0.28-0.02-0.63,0.26-0.77
					c0.35-0.17,8.63-4.17,16.17-0.65c0.29,0.13,0.41,0.48,0.28,0.76c-0.13,0.29-0.48,0.41-0.76,0.28c-7.04-3.3-15.1,0.6-15.18,0.64
					C643,671.14,642.92,671.16,642.83,671.16z"/>
			</g>
			<g>
				<path class="st29" d="M643.84,679.35c-0.21,0-0.41-0.12-0.51-0.32c-0.14-0.28-0.02-0.63,0.26-0.77
					c0.35-0.17,8.63-4.17,16.17-0.65c0.29,0.13,0.41,0.48,0.28,0.76c-0.13,0.29-0.48,0.41-0.76,0.28c-7.04-3.3-15.1,0.6-15.18,0.64
					C644.02,679.33,643.93,679.35,643.84,679.35z"/>
			</g>
		</g>
		<g>
			<g>
				<g>
					<polygon class="st39" points="909.59,391.18 966.01,697.57 954.39,697.57 874.75,391.18 					"/>
				</g>
			</g>
			<g>
				<polygon class="st40" points="909.59,391.18 874.75,391.18 878.8,406.47 912.49,406.47 				"/>
			</g>
			<g>
				<g>
					<polygon class="st39" points="318.7,391.18 262.29,697.57 273.9,697.57 353.55,391.18 					"/>
				</g>
			</g>
			<g>
				<polygon class="st40" points="318.7,391.18 353.55,391.18 349.49,406.47 315.8,406.47 				"/>
			</g>
			<g>
				<rect x="262.29" y="384.22" class="st39" width="703.71" height="14.98"/>
			</g>
		</g>
	</g>
	<g>
		<g>
			<path class="st1" d="M159.11,456.71c11.2,38.76,12.03,66.48-1.61,70.42c-13.64,3.94-36.57-17.38-47.77-56.14
				c-11.2-38.76-9.23-73.38,4.41-77.32C127.77,389.72,147.9,417.95,159.11,456.71z"/>
		</g>
		<g class="st41">
			<g>
				<path class="st42" d="M106.67,408.7c4.75,3.56,9.01,7.41,12.85,11.95c7.54,8.91,13.41,18.95,19.64,28.77
					c6.83,10.77,14.31,21.11,21.07,31.92c2.31,3.7,4.48,7.47,6.58,11.28c-1.21-10.28-3.85-22.42-7.75-35.91
					c-11.2-38.76-31.34-66.99-44.98-63.05c-4.57,1.32-7.83,6.11-9.72,13.33C105.14,407.56,105.91,408.13,106.67,408.7z"/>
			</g>
		</g>
		<g>
			<path class="st1" d="M196.29,420.05c3.3,43.36-5.17,75.48-18.95,76.53c-13.79,1.05-27.68-29.38-30.97-72.74
				c-3.3-43.36,5.21-79.35,18.99-80.4S192.99,376.7,196.29,420.05z"/>
		</g>
		<g class="st41">
			<g>
				<path class="st42" d="M192.1,385.3c-9.02,10.96-16.97,33.16-20.24,59.39c-2.6,20.82-2.8,38.1-0.29,49.86
					c2.25,1.49,4.55,2.21,6.85,2.03c13.79-1.05,22.25-33.18,18.95-76.53C196.41,407.49,194.57,395.7,192.1,385.3z"/>
			</g>
		</g>
		<g>
			<path class="st1" d="M177.6,444.69c-4.81,38.5-1.42,64.95,12.13,66.64c13.55,1.69,32.12-22.01,36.92-60.51
				c4.81-38.5-2.28-71.08-15.82-72.77S182.41,406.19,177.6,444.69z"/>
		</g>
		<g class="st41">
			<g>
				<path class="st42" d="M212.18,378.28c5.26,22.13,4.32,45.85,1.61,68.14c-1.69,13.91-4.2,27.66-7.01,41.38
					c-1.26,6.18-2.73,12.33-4.09,18.5c10.44-8.78,20.6-28.5,23.97-55.52C231.3,413.57,224.84,381.91,212.18,378.28z"/>
			</g>
		</g>
		<g>
			<g>
				<path class="st3" d="M112.8,395c-0.28,25,6.44,49.46,15.69,72.5c9.35,23.27,21.38,45.31,32.12,67.94
					c6.05,12.75,11.67,25.7,16.16,39.09c0.54,1.6,3.09,0.92,2.54-0.7c-7.95-23.73-19.43-46.02-30.51-68.39
					c-11.03-22.27-21.67-44.9-27.94-69.04c-3.51-13.52-5.58-27.41-5.42-41.4C115.45,393.3,112.82,393.3,112.8,395L112.8,395z"/>
			</g>
		</g>
		<g>
			<g>
				<path class="st3" d="M164.73,344.7c-3.02,28.5-3.36,57.27-1.3,85.85c1.99,27.62,7.13,54.9,9.01,82.52
					c1.03,15.13,1.08,30.42-1.32,45.43c-0.27,1.66,2.28,2.38,2.54,0.7c4.34-27.11,1.13-54.72-2.36-81.73
					c-1.77-13.73-3.64-27.44-4.79-41.24c-1.19-14.29-1.79-28.63-1.75-42.96c0.04-16.22,0.9-32.44,2.6-48.57
					C167.54,343.02,164.9,343.03,164.73,344.7L164.73,344.7z"/>
			</g>
		</g>
		<g>
			<g>
				<path class="st3" d="M209.14,379.22c2.94,25.82-1.53,51.67-7.82,76.67c-6.26,24.91-14.38,49.37-19.17,74.64
					c-2.67,14.1-4.28,28.43-3.93,42.79c0.04,1.69,2.68,1.7,2.64,0c-0.63-25.68,5.09-50.89,11.76-75.53
					c6.75-24.9,14.55-49.63,18.13-75.25c2-14.35,2.67-28.89,1.03-43.32C211.59,377.56,208.95,377.54,209.14,379.22L209.14,379.22z"
					/>
			</g>
		</g>
		<g>
			<polygon class="st43" points="152.72,697.5 201.22,697.5 209.61,585.6 142.22,585.6 			"/>
		</g>
		<g>
			<g>
				<path class="st44" d="M182.59,600.19c9.09,2.6,17.3,6.6,25.07,11.4l1.95-25.99h-67.39l0.86,9.21
					C156.41,595.22,169.78,596.53,182.59,600.19z"/>
			</g>
		</g>
		<g>
			<polygon class="st43" points="139.18,588.05 214.34,588.05 218.75,570.27 133.09,570.27 			"/>
		</g>
	</g>
	<g>
		<g>
			<g>
				<g>
					<path class="st1" d="M957.24,621.16c0,0-5.98-99.45-36.02-89.28C891.18,542.04,948.3,621.47,957.24,621.16z"/>
				</g>
				<g>
					<g>
						<path class="st42" d="M920.79,532.45c1.8,5.95,3.69,11.88,5.67,17.77c1.99,5.89,4.07,11.75,6.25,17.57
							c2.18,5.82,4.45,11.61,6.82,17.36s4.82,11.46,7.38,17.13c2.55,5.67,5.19,11.3,7.93,16.88c0.34,0.7,0.68,1.4,1.03,2.09
							c0.24,0.48,0.99,0.14,0.76-0.34c-2.76-5.57-5.42-11.19-8-16.85c-2.57-5.66-5.06-11.36-7.45-17.1
							c-2.39-5.74-4.69-11.52-6.89-17.33c-2.2-5.81-4.31-11.66-6.32-17.55s-3.93-11.8-5.75-17.74c-0.23-0.74-0.45-1.49-0.68-2.23
							C921.4,531.61,920.64,531.95,920.79,532.45L920.79,532.45z"/>
					</g>
				</g>
				<g>
					<g>
						<path class="st42" d="M940.24,583.95c2.49-7.2,4.15-14.69,4.93-22.27c0.22-2.14,0.37-4.3,0.45-6.45
							c0.02-0.53-0.8-0.63-0.82-0.1c-0.28,7.57-1.43,15.1-3.43,22.41c-0.56,2.05-1.2,4.09-1.89,6.1
							C939.29,584.15,940.06,584.46,940.24,583.95L940.24,583.95z"/>
					</g>
				</g>
				<g>
					<g>
						<path class="st42" d="M931.32,563.54c-4.09-5.13-8.64-9.9-13.57-14.22c-1.39-1.22-2.8-2.4-4.25-3.54
							c-0.42-0.33-0.91,0.34-0.49,0.67c5.09,4.03,9.82,8.51,14.11,13.38c1.22,1.38,2.4,2.8,3.55,4.24
							C931,564.48,931.65,563.96,931.32,563.54L931.32,563.54z"/>
					</g>
				</g>
			</g>
			<g>
				<g>
					<path class="st1" d="M970.12,577.65c0,0-51.8-78.62-17.86-86.12C986.21,484.03,970.12,577.65,970.12,577.65z"/>
				</g>
				<g>
					<g>
						<path class="st42" d="M951.7,492.48c3.07,10.9,5.87,21.88,8.37,32.93c2.5,10.99,4.71,22.04,6.64,33.14
							c1.09,6.26,2.09,12.53,2.99,18.81c0.08,0.53,0.9,0.4,0.82-0.12c-1.62-11.21-3.52-22.38-5.72-33.49
							c-2.18-11.06-4.65-22.05-7.39-32.98c-1.55-6.16-3.18-12.29-4.9-18.41C952.38,491.85,951.56,491.97,951.7,492.48L951.7,492.48z
							"/>
					</g>
				</g>
				<g>
					<g>
						<path class="st42" d="M961.2,523.91c1.09-7.26,2.19-14.52,3.28-21.77c0.31-2.07,0.62-4.15,0.94-6.22
							c0.08-0.53-0.74-0.63-0.82-0.1c-1.09,7.26-2.19,14.52-3.28,21.77c-0.31,2.07-0.63,4.15-0.94,6.22
							C960.3,524.33,961.13,524.43,961.2,523.91L961.2,523.91z"/>
					</g>
				</g>
				<g>
					<g>
						<path class="st42" d="M964.53,542.17c-5.36-5.46-10.72-10.93-16.08-16.39c-1.5-1.53-3.01-3.07-4.51-4.6
							c-0.37-0.38-1.02,0.14-0.65,0.52c5.36,5.46,10.72,10.93,16.08,16.39c1.5,1.53,3.01,3.07,4.51,4.6
							C964.25,543.06,964.9,542.55,964.53,542.17L964.53,542.17z"/>
					</g>
				</g>
			</g>
			<g>
				<g>
					<path class="st1" d="M963.32,605.27c0,0,41.45-53.15,59.48-33.39C1040.83,591.64,973.52,608.22,963.32,605.27z"/>
				</g>
				<g>
					<g>
						<path class="st42" d="M964.39,605.53c7.47-4.47,14.98-8.86,22.54-13.17c7.56-4.31,15.17-8.53,22.82-12.68
							c4.29-2.32,8.6-4.62,12.92-6.89c0.47-0.25,0.14-1.01-0.34-0.76c-7.7,4.05-15.36,8.18-22.98,12.4
							c-7.61,4.22-15.18,8.51-22.7,12.89c-4.22,2.46-8.42,4.94-12.61,7.44C963.6,605.04,963.93,605.8,964.39,605.53L964.39,605.53z"
							/>
					</g>
				</g>
				<g>
					<g>
						<path class="st42" d="M980.4,595.79c1.56-4.05,3.12-8.1,4.68-12.16c0.19-0.5-0.58-0.81-0.77-0.31
							c-1.56,4.05-3.12,8.1-4.68,12.16C979.44,595.98,980.21,596.28,980.4,595.79L980.4,595.79z"/>
					</g>
				</g>
				<g>
					<g>
						<path class="st42" d="M1005.48,581.77c1.4-4.58,3.41-8.96,5.99-13c0.29-0.45-0.38-0.94-0.67-0.49
							c-2.62,4.1-4.68,8.53-6.1,13.18C1004.55,581.97,1005.32,582.28,1005.48,581.77L1005.48,581.77z"/>
					</g>
				</g>
				<g>
					<g>
						<path class="st42" d="M987.83,591.91c8.1-0.92,16.19-1.84,24.28-2.76c2.3-0.26,4.59-0.52,6.89-0.78
							c0.53-0.06,0.41-0.88-0.12-0.82c-8.09,0.92-16.19,1.84-24.28,2.76c-2.3,0.26-4.59,0.52-6.89,0.78
							C987.17,591.16,987.3,591.97,987.83,591.91L987.83,591.91z"/>
					</g>
				</g>
			</g>
			<g>
				<g>
					<path class="st42" d="M943.56,641.66c5.65-7.19,10.54-14.97,14.57-23.18c4.04-8.21,7.22-16.83,9.48-25.69
						c1.27-4.97,2.24-10.01,2.92-15.09c0.07-0.53-0.75-0.63-0.82-0.1c-1.2,9.04-3.36,17.95-6.42,26.54
						c-3.04,8.55-6.96,16.78-11.7,24.52c-2.65,4.33-5.56,8.51-8.7,12.51C942.56,641.59,943.23,642.08,943.56,641.66L943.56,641.66z"
						/>
				</g>
			</g>
		</g>
		<g>
			<path class="st1" d="M843.48,697.7c-0.9-9.89,3.22-20.12,10.69-26.58c7.48-6.46,18.12-8.99,27.66-6.56
				c-0.69-9.05,5.21-18.21,13.69-21.22c8.48-3.02,18.76,0.37,23.85,7.86c-2.3-6.45,0.31-14.05,5.42-18.57
				c5.1-4.52,12.25-6.21,19.02-5.68c8.02,0.63,15.93,4.38,20.87,10.79c4.94,6.41,6.55,15.53,3.32,22.97
				c5.19-9.16,16.73-14.13,26.86-11.56c10.14,2.57,17.99,12.44,18.28,22.99c0.26,9.34-5.04,18.32-10.92,25.54L843.48,697.7z"/>
		</g>
		<g class="st2">
			<g>
				<path class="st3" d="M854.17,671.11c7.48-6.46,18.12-8.99,27.66-6.56c0,0,0,0,0.01-0.01c-0.04-0.55-0.07-1.11-0.06-1.66
					c0.01-0.45,0.04-0.9,0.07-1.34c0.01-0.1,0.01-0.21,0.02-0.31c0.05-0.53,0.13-1.06,0.22-1.58c0-0.02,0-0.04,0.01-0.05
					c0.09-0.5,0.2-0.99,0.33-1.48c0.01-0.04,0.02-0.09,0.03-0.13c0,0,0,0,0,0c1.73-6.59,6.66-12.37,13.07-14.65
					c8.48-3.02,18.76,0.37,23.85,7.86c-2.3-6.45,0.31-14.05,5.42-18.57c5.1-4.52,12.25-6.21,19.02-5.68
					c8.02,0.63,15.93,4.38,20.87,10.79c2.26,2.94,3.82,6.44,4.54,10.09c-4.3-3.52-9.63-5.76-15.6-6.41
					c-4.97-0.55-10.07,0.11-14.71,1.98c-5.69,2.3-9.3,6.22-13.64,10.37c-2.57,2.46-4.58,2.74-7.98,3.04
					c-3.84,0.34-7.37,1.09-10.91,2.65c-3.98,1.76-9.69,2.76-14.7,4.27c-4.17,1.26-6.91,5.34-6.41,9.67
					c1.01,8.67-1.72,22.47-13.71,24.23l-3.63,0.02c0,0,0,0,0,0l-24.44,0.05c-0.06-0.62-0.09-1.24-0.11-1.86
					C843.11,686.54,847.17,677.17,854.17,671.11z"/>
			</g>
		</g>
		<g>
			<path class="st1" d="M863.19,654.29c8.4,3.04,14.7,11.39,15.33,20.36c0.69,9.92-3.27,18.68-12.22,23.01H766.27
				c-4.5-4.96-6.23-12.28-4.42-18.72c1.8-6.45,7.08-11.8,13.5-13.71c6.42-1.9,13.76-0.28,18.79,4.14
				c-0.82-6.84,2.93-13.89,8.82-17.46c5.89-3.58,13.58-3.74,19.84-0.86c6.26,2.88,11.05,8.58,13.29,15.1
				c3.76-9.2,14.67-14.71,24.39-12.64C861.4,653.71,862.31,653.97,863.19,654.29z"/>
		</g>
	</g>
	<g>
		<g>
			<g>
				<g>
					<path class="st10" d="M415.68,85.74l-5.6,0.95c-0.39-0.73-0.83-1.43-1.31-2.1l3.31-4.66c0.74-1.04,0.49-2.5-0.55-3.24
						l-6.06-4.3c-1.04-0.74-2.5-0.49-3.24,0.55l-3.28,4.62c-0.84-0.26-1.69-0.46-2.57-0.59l-0.98-5.76
						c-0.21-1.26-1.42-2.11-2.68-1.9l-7.33,1.24c-1.26,0.21-2.11,1.42-1.9,2.68l0.98,5.76c-0.97,0.52-1.9,1.12-2.75,1.8l-4.96-3.53
						c-1.04-0.74-2.5-0.49-3.24,0.55l-4.3,6.06c-0.74,1.04-0.49,2.5,0.55,3.24l5.35,3.8c-0.15,0.58-0.27,1.17-0.37,1.77l-6.52,1.1
						c-1.26,0.21-2.11,1.42-1.9,2.68l1.24,7.33c0.21,1.26,1.42,2.11,2.68,1.9l6.52-1.1c0.42,0.78,0.89,1.52,1.41,2.23l-3.74,5.26
						c-0.74,1.04-0.49,2.5,0.55,3.24l6.06,4.3c1.04,0.74,2.5,0.49,3.24-0.55l3.77-5.3c0.79,0.23,1.59,0.41,2.41,0.54l1.09,6.43
						c0.21,1.26,1.42,2.11,2.68,1.9l7.33-1.24c1.26-0.21,2.11-1.42,1.9-2.68l-1.09-6.43c0.53-0.29,1.05-0.6,1.55-0.93l5.49,3.9
						c1.04,0.74,2.5,0.49,3.24-0.55l4.3-6.06c0.74-1.04,0.49-2.5-0.55-3.24l-5.1-3.62c0.36-1.03,0.62-2.1,0.79-3.19l5.6-0.95
						c1.26-0.21,2.11-1.42,1.9-2.68l-1.24-7.33C418.14,86.38,416.94,85.52,415.68,85.74z M384.12,97.21
						c-0.88-5.2,2.62-10.13,7.82-11.02c5.2-0.88,10.13,2.62,11.02,7.82c0.88,5.2-2.62,10.13-7.82,11.02
						C389.94,105.91,385,102.41,384.12,97.21z"/>
				</g>
			</g>
			<g>
				<g>
					<path class="st45" d="M415.68,85.74l-5.6,0.95c-0.39-0.73-0.83-1.43-1.31-2.1l3.31-4.66c0.74-1.04,0.49-2.5-0.55-3.24
						l-2.34-1.66c-0.5,2.21-1.12,4.4-2.05,6.56c-1.46,3.4-3.06,6.77-4.97,9.95c0.36,0.77,0.64,1.6,0.78,2.48
						c0.88,5.2-2.62,10.13-7.82,11.02c-1.77,0.3-3.5,0.08-5.06-0.52c-0.09,0.06-0.18,0.13-0.27,0.2c-3.96,2.76-8.23,5-12.86,6.41
						c-0.74,0.23-1.49,0.41-2.24,0.58l-0.26,0.37c-0.74,1.04-0.49,2.5,0.55,3.24l6.06,4.3c1.04,0.74,2.5,0.49,3.24-0.55l3.77-5.3
						c0.79,0.23,1.59,0.41,2.41,0.54l1.09,6.43c0.21,1.26,1.42,2.11,2.68,1.9l7.33-1.24c1.26-0.21,2.11-1.42,1.9-2.68l-1.09-6.43
						c0.53-0.29,1.05-0.6,1.55-0.93l5.49,3.9c1.04,0.74,2.5,0.49,3.24-0.55l4.3-6.06c0.74-1.04,0.49-2.5-0.55-3.24l-5.1-3.62
						c0.36-1.03,0.62-2.1,0.79-3.19l5.6-0.95c1.26-0.21,2.11-1.42,1.9-2.68l-1.24-7.33C418.14,86.38,416.94,85.52,415.68,85.74z"/>
				</g>
			</g>
		</g>
		<g>
			<g>
				<path class="st46" d="M478.74,134.66h-69.06c-7.67,0-13.95-6.28-13.95-13.95l0,0c0-7.67,6.28-13.95,13.95-13.95h69.06
					c7.67,0,13.95,6.28,13.95,13.95l0,0C492.68,128.38,486.41,134.66,478.74,134.66z"/>
			</g>
			<g>
				<path class="st18" d="M481.43,132.42h-69.56c-7.53,0-13.69-6.16-13.69-13.69v-0.5c0-7.53,6.16-13.69,13.69-13.69h69.56
					c7.53,0,13.69,6.16,13.69,13.69v0.5C495.12,126.26,488.96,132.42,481.43,132.42z"/>
			</g>
			<g>
				<polygon class="st46" points="458.02,132.42 469.73,145.76 469.73,132.42 				"/>
			</g>
			<g>
				<polygon class="st18" points="459.98,131.82 469.73,142.92 469.73,131.82 				"/>
			</g>
			<g>
				<path class="st46" d="M423.12,118.48c0,1.93-1.56,3.49-3.49,3.49c-1.93,0-3.49-1.56-3.49-3.49c0-1.93,1.56-3.49,3.49-3.49
					C421.56,114.99,423.12,116.55,423.12,118.48z"/>
			</g>
			<g>
				<path class="st46" d="M440.79,118.48c0,1.93-1.56,3.49-3.49,3.49c-1.93,0-3.49-1.56-3.49-3.49c0-1.93,1.56-3.49,3.49-3.49
					C439.23,114.99,440.79,116.55,440.79,118.48z"/>
			</g>
			<g>
				<path class="st46" d="M458.87,118.48c0,1.93-1.56,3.49-3.49,3.49c-1.93,0-3.49-1.56-3.49-3.49c0-1.93,1.56-3.49,3.49-3.49
					C457.31,114.99,458.87,116.55,458.87,118.48z"/>
			</g>
			<g>
				<path class="st46" d="M477.15,118.48c0,1.93-1.56,3.49-3.49,3.49c-1.93,0-3.49-1.56-3.49-3.49c0-1.93,1.56-3.49,3.49-3.49
					C475.58,114.99,477.15,116.55,477.15,118.48z"/>
			</g>
		</g>
	</g>
</g>
</svg>
