<svg id="visual" viewBox="0 0 900 600" width="900" height="600" xmlns="http://www.w3.org/2000/svg" xmlns:xlink="http://www.w3.org/1999/xlink" version="1.1"><path d="M0 543L150 487L300 473L450 493L600 457L750 534L900 431L900 601L750 601L600 601L450 601L300 601L150 601L0 601Z" fill="#0d0716"></path><path d="M0 460L150 542L300 519L450 450L600 503L750 520L900 504L900 601L750 601L600 601L450 601L300 601L150 601L0 601Z" fill="#0d0615"></path><path d="M0 526L150 521L300 490L450 508L600 535L750 513L900 523L900 601L750 601L600 601L450 601L300 601L150 601L0 601Z" fill="#0d0513"></path><path d="M0 550L150 545L300 542L450 491L600 490L750 558L900 492L900 601L750 601L600 601L450 601L300 601L150 601L0 601Z" fill="#0c0412"></path><path d="M0 556L150 530L300 556L450 549L600 551L750 512L900 565L900 601L750 601L600 601L450 601L300 601L150 601L0 601Z" fill="#0c0410"></path><path d="M0 566L150 546L300 523L450 569L600 572L750 576L900 532L900 601L750 601L600 601L450 601L300 601L150 601L0 601Z" fill="#0b030f"></path><path d="M0 575L150 566L300 546L450 552L600 587L750 548L900 572L900 601L750 601L600 601L450 601L300 601L150 601L0 601Z" fill="#0b030e"></path><path d="M0 562L150 573L300 590L450 585L600 585L750 574L900 588L900 601L750 601L600 601L450 601L300 601L150 601L0 601Z" fill="#0a020c"></path></svg>