<svg id="visual" viewBox="0 0 900 600" width="900" height="600" xmlns="http://www.w3.org/2000/svg" xmlns:xlink="http://www.w3.org/1999/xlink" version="1.1"><path d="M0 55L150 111L300 125L450 105L600 141L750 64L900 167L900 0L750 0L600 0L450 0L300 0L150 0L0 0Z" fill="#0d0716"></path><path d="M0 138L150 56L300 79L450 148L600 95L750 78L900 94L900 0L750 0L600 0L450 0L300 0L150 0L0 0Z" fill="#0d0615"></path><path d="M0 72L150 77L300 108L450 90L600 63L750 85L900 75L900 0L750 0L600 0L450 0L300 0L150 0L0 0Z" fill="#0d0513"></path><path d="M0 48L150 53L300 56L450 107L600 108L750 40L900 106L900 0L750 0L600 0L450 0L300 0L150 0L0 0Z" fill="#0c0412"></path><path d="M0 42L150 68L300 42L450 49L600 47L750 86L900 33L900 0L750 0L600 0L450 0L300 0L150 0L0 0Z" fill="#0c0410"></path><path d="M0 32L150 52L300 75L450 29L600 26L750 22L900 66L900 0L750 0L600 0L450 0L300 0L150 0L0 0Z" fill="#0b030f"></path><path d="M0 23L150 32L300 52L450 46L600 11L750 50L900 26L900 0L750 0L600 0L450 0L300 0L150 0L0 0Z" fill="#0b030e"></path><path d="M0 36L150 25L300 8L450 13L600 13L750 24L900 10L900 0L750 0L600 0L450 0L300 0L150 0L0 0Z" fill="#0a020c"></path></svg>